<svg width="22690" height="25230" viewBox="0 0 22690 25230" fill="none" xmlns="http://www.w3.org/2000/svg">
<path d="M1662 4L831 4V400V796L831 1192V1588V1984V2380V2776L831 3172H1662C1662 2776 1459.16 2695.71 1456.94 2380C1454.66 2055.47 1662 1937.94 1662 1564.97C1662 1192 1459.22 1102.9 1456.94 796C1454.59 480.29 1662 400 1662 4Z" fill="#333333"/>
<path d="M3004 3168H3835V2772.5V2377V1981.5V1586V1190.5V795V399.5V4H3004C3004 399.5 3206.84 479.688 3209.06 795C3211.34 1119.12 3004 1236.51 3004 1609C3004 1981.5 3206.78 2070.48 3209.06 2377C3211.41 2692.31 3004 2772.5 3004 3168Z" fill="black"/>
<path d="M1662 3168H831V3564V3960L831 4356V4752V5148V5544V5940L831 6336H1662C1662 5940 1459.16 5859.71 1456.94 5544C1454.66 5219.47 1662 5101.94 1662 4728.97C1662 4356 1459.22 4266.9 1456.94 3960C1454.59 3644.29 1662 3564 1662 3168Z" fill="#333333"/>
<path d="M3004 6332H3835V5936.5V5541V5145.5V4750V4354.5V3959V3563.5V3168H3004C3004 3563.5 3206.84 3643.69 3209.06 3959C3211.34 4283.12 3004 4400.51 3004 4773C3004 5145.5 3206.78 5234.48 3209.06 5541C3211.41 5856.31 3004 5936.5 3004 6332Z" fill="black"/>
<path d="M1662 6332H831V6728V7124L831 7520V7916V8312V8708V9104L831 9500H1662C1662 9104 1459.16 9023.71 1456.94 8708C1454.66 8383.47 1662 8265.94 1662 7892.97C1662 7520 1459.22 7430.9 1456.94 7124C1454.59 6808.29 1662 6728 1662 6332Z" fill="#333333"/>
<path d="M3004 9496H3835V9100.5V8705V8309.5V7914V7518.5V7123V6727.5V6332H3004C3004 6727.5 3206.84 6807.69 3209.06 7123C3211.34 7447.12 3004 7564.51 3004 7937C3004 8309.5 3206.78 8398.48 3209.06 8705C3211.41 9020.31 3004 9100.5 3004 9496Z" fill="black"/>
<path d="M1662 9496H831V9892V10288L831 10684V11080V11476V11872V12268L831 12664H1662C1662 12268 1459.16 12187.7 1456.94 11872C1454.66 11547.5 1662 11429.9 1662 11057C1662 10684 1459.22 10594.9 1456.94 10288C1454.59 9972.29 1662 9892 1662 9496Z" fill="#333333"/>
<path d="M0 12660H879V12264V11868L879 11472V11076V10680V10284V9888L879 9492H0C0 9888 214.557 9968.29 216.905 10284C219.318 10608.5 4.7308e-06 10726.1 0 11099C-4.7308e-06 11472 214.492 11561.1 216.905 11868C219.387 12183.7 6.01985e-05 12264 0 12660Z" fill="#333333"/>
<path d="M0 9496H879V9100V8704L879 8308V7912V7516V7120V6724L879 6328H0C0 6724 214.557 6804.29 216.905 7120C219.318 7444.53 4.7308e-06 7562.06 0 7935.03C-4.7308e-06 8308 214.492 8397.1 216.905 8704C219.387 9019.71 6.01985e-05 9100 0 9496Z" fill="#333333"/>
<path d="M0 6332H879V5936V5540L879 5144V4748V4352V3956V3560L879 3164H0C0 3560 214.557 3640.29 216.905 3956C219.318 4280.53 4.7308e-06 4398.06 0 4771.03C-4.7308e-06 5144 214.492 5233.1 216.905 5540C219.387 5855.71 6.01985e-05 5936 0 6332Z" fill="#333333"/>
<path d="M0 3168H879V2772V2376L879 1980V1584V1188V792V396L879 0H0C0 396 214.557 476.29 216.905 792C219.318 1116.53 4.7308e-06 1234.06 0 1607.03C-4.7308e-06 1980 214.492 2069.1 216.905 2376C219.387 2691.71 6.01985e-05 2772 0 3168Z" fill="#333333"/>
<path d="M3004 12660H3835V12264.5V11869V11473.5V11078V10682.5V10287V9891.5V9496H3004C3004 9891.5 3206.84 9971.69 3209.06 10287C3211.34 10611.1 3004 10728.5 3004 11101C3004 11473.5 3206.78 11562.5 3209.06 11869C3211.41 12184.3 3004 12264.5 3004 12660Z" fill="black"/>
<path d="M4666 3168H3835V2772.5V2377V1981.5V1586V1190.5V795V399.5V4H4666C4666 399.5 4463.16 479.688 4460.94 795C4458.66 1119.12 4666 1236.51 4666 1609C4666 1981.5 4463.22 2070.48 4460.94 2377C4458.59 2692.31 4666 2772.5 4666 3168Z" fill="black"/>
<path d="M4666 6332H3835V5936.5V5541V5145.5V4750V4354.5V3959V3563.5V3168H4666C4666 3563.5 4463.16 3643.69 4460.94 3959C4458.66 4283.12 4666 4400.51 4666 4773C4666 5145.5 4463.22 5234.48 4460.94 5541C4458.59 5856.31 4666 5936.5 4666 6332Z" fill="black"/>
<path d="M4666 9496H3835V9100.5V8705V8309.5V7914V7518.5V7123V6727.5V6332H4666C4666 6727.5 4463.16 6807.69 4460.94 7123C4458.66 7447.12 4666 7564.51 4666 7937C4666 8309.5 4463.22 8398.48 4460.94 8705C4458.59 9020.31 4666 9100.5 4666 9496Z" fill="black"/>
<path d="M4666 12660H3835V12264.5V11869V11473.5V11078V10682.5V10287V9891.5V9496H4666C4666 9891.5 4463.16 9971.69 4460.94 10287C4458.66 10611.1 4666 10728.5 4666 11101C4666 11473.5 4463.22 11562.5 4460.94 11869C4458.59 12184.3 4666 12264.5 4666 12660Z" fill="black"/>
<path d="M7670 0L6839 0V396V792V1188V1584V1980V2376V2772V3168H7670C7670 2772 7467.16 2691.71 7464.94 2376C7462.66 2051.47 7670 1933.94 7670 1560.97C7670 1188 7467.22 1098.9 7464.94 792C7462.59 476.29 7670 396 7670 0Z" fill="#333333"/>
<path d="M9012 3168H9843V2772.5V2377V1981.5V1586V1190.5V795V399.5V4H9012C9012 399.5 9214.84 479.688 9217.06 795C9219.34 1119.12 9012 1236.51 9012 1609C9012 1981.5 9214.78 2070.48 9217.06 2377C9219.41 2692.31 9012 2772.5 9012 3168Z" fill="black"/>
<path d="M7670 3168H6839V3564V3960V4356V4752V5148V5544V5940V6336H7670C7670 5940 7467.16 5859.71 7464.94 5544C7462.66 5219.47 7670 5101.94 7670 4728.97C7670 4356 7467.22 4266.9 7464.94 3960C7462.59 3644.29 7670 3564 7670 3168Z" fill="#333333"/>
<path d="M9012 6332H9843V5936.5V5541V5145.5V4750V4354.5V3959V3563.5V3168H9012C9012 3563.5 9214.84 3643.69 9217.06 3959C9219.34 4283.12 9012 4400.51 9012 4773C9012 5145.5 9214.78 5234.48 9217.06 5541C9219.41 5856.31 9012 5936.5 9012 6332Z" fill="black"/>
<path d="M7670 6332H6839V6728V7124V7520V7916V8312V8708V9104V9500H7670C7670 9104 7467.16 9023.71 7464.94 8708C7462.66 8383.47 7670 8265.94 7670 7892.97C7670 7520 7467.22 7430.9 7464.94 7124C7462.59 6808.29 7670 6728 7670 6332Z" fill="#333333"/>
<path d="M9012 9496H9843V9100.5V8705V8309.5V7914V7518.5V7123V6727.5V6332H9012C9012 6727.5 9214.84 6807.69 9217.06 7123C9219.34 7447.12 9012 7564.51 9012 7937C9012 8309.5 9214.78 8398.48 9217.06 8705C9219.41 9020.31 9012 9100.5 9012 9496Z" fill="black"/>
<path d="M7670 9496H6839V9892V10288V10684V11080V11476V11872V12268V12664H7670C7670 12268 7467.16 12187.7 7464.94 11872C7462.66 11547.5 7670 11429.9 7670 11057C7670 10684 7467.22 10594.9 7464.94 10288C7462.59 9972.29 7670 9892 7670 9496Z" fill="#333333"/>
<path d="M6008 12660H7100V12264V11868V11472V11076V10680V10284V9888V9492H6008C6008 9888 6274.55 9968.29 6277.47 10284C6280.46 10608.5 6008 10726.1 6008 11099C6008 11472 6274.47 11561.1 6277.47 11868C6280.55 12183.7 6008 12264 6008 12660Z" fill="#333333"/>
<path d="M6008 9496H7100V9100V8704V8308V7912V7516V7120V6724V6328H6008C6008 6724 6274.55 6804.29 6277.47 7120C6280.46 7444.53 6008 7562.06 6008 7935.03C6008 8308 6274.47 8397.1 6277.47 8704C6280.55 9019.71 6008 9100 6008 9496Z" fill="#333333"/>
<path d="M6008 6332H7100V5936V5540V5144V4748V4352V3956V3560V3164H6008C6008 3560 6274.55 3640.29 6277.47 3956C6280.46 4280.53 6008 4398.06 6008 4771.03C6008 5144 6274.47 5233.1 6277.47 5540C6280.55 5855.71 6008 5936 6008 6332Z" fill="#333333"/>
<path d="M6008 3168H7100V2772V2376V1980V1584V1188V792V396V0H6008C6008 396 6274.55 476.29 6277.47 792C6280.46 1116.53 6008 1234.06 6008 1607.03C6008 1980 6274.47 2069.1 6277.47 2376C6280.55 2691.71 6008 2772 6008 3168Z" fill="#333333"/>
<path d="M9012 12660H9843V12264.5V11869V11473.5V11078V10682.5V10287V9891.5V9496H9012C9012 9891.5 9214.84 9971.69 9217.06 10287C9219.34 10611.1 9012 10728.5 9012 11101C9012 11473.5 9214.78 11562.5 9217.06 11869C9219.41 12184.3 9012 12264.5 9012 12660Z" fill="black"/>
<path d="M10674 3168H9843V2772.5V2377V1981.5V1586V1190.5V795V399.5V4H10674C10674 399.5 10471.2 479.688 10468.9 795C10466.7 1119.12 10674 1236.51 10674 1609C10674 1981.5 10471.2 2070.48 10468.9 2377C10466.6 2692.31 10674 2772.5 10674 3168Z" fill="black"/>
<path d="M10674 6332H9843V5936.5V5541V5145.5V4750V4354.5V3959V3563.5V3168H10674C10674 3563.5 10471.2 3643.69 10468.9 3959C10466.7 4283.12 10674 4400.51 10674 4773C10674 5145.5 10471.2 5234.48 10468.9 5541C10466.6 5856.31 10674 5936.5 10674 6332Z" fill="black"/>
<path d="M10674 9496H9843V9100.5V8705V8309.5V7914V7518.5V7123V6727.5V6332H10674C10674 6727.5 10471.2 6807.69 10468.9 7123C10466.7 7447.12 10674 7564.51 10674 7937C10674 8309.5 10471.2 8398.48 10468.9 8705C10466.6 9020.31 10674 9100.5 10674 9496Z" fill="black"/>
<path d="M10674 12660H9843V12264.5V11869V11473.5V11078V10682.5V10287V9891.5V9496H10674C10674 9891.5 10471.2 9971.69 10468.9 10287C10466.7 10611.1 10674 10728.5 10674 11101C10674 11473.5 10471.2 11562.5 10468.9 11869C10466.6 12184.3 10674 12264.5 10674 12660Z" fill="black"/>
<path d="M13678 12570H12847V12966V13362V13758V14154V14550V14946V15342V15738H13678C13678 15342 13475.2 15261.7 13472.9 14946C13470.7 14621.5 13678 14503.9 13678 14131C13678 13758 13475.2 13668.9 13472.9 13362C13470.6 13046.3 13678 12966 13678 12570Z" fill="#333333"/>
<path d="M15020 15734H15851V15338.5V14943V14547.5V14152V13756.5V13361V12965.5V12570H15020C15020 12965.5 15222.8 13045.7 15225.1 13361C15227.3 13685.1 15020 13802.5 15020 14175C15020 14547.5 15222.8 14636.5 15225.1 14943C15227.4 15258.3 15020 15338.5 15020 15734Z" fill="black"/>
<path d="M13678 15734H12847V16130V16526V16922V17318V17714V18110V18506V18902H13678C13678 18506 13475.2 18425.7 13472.9 18110C13470.7 17785.5 13678 17667.9 13678 17295C13678 16922 13475.2 16832.9 13472.9 16526C13470.6 16210.3 13678 16130 13678 15734Z" fill="#333333"/>
<path d="M15020 18898H15851V18502.5V18107V17711.5V17316V16920.5V16525V16129.5V15734H15020C15020 16129.5 15222.8 16209.7 15225.1 16525C15227.3 16849.1 15020 16966.5 15020 17339C15020 17711.5 15222.8 17800.5 15225.1 18107C15227.4 18422.3 15020 18502.5 15020 18898Z" fill="black"/>
<path d="M13678 18898H12847V19294V19690V20086V20482V20878V21274V21670V22066H13678C13678 21670 13475.2 21589.7 13472.9 21274C13470.7 20949.5 13678 20831.9 13678 20459C13678 20086 13475.2 19996.9 13472.9 19690C13470.6 19374.3 13678 19294 13678 18898Z" fill="#333333"/>
<path d="M15020 22062H15851V21666.5V21271V20875.5V20480V20084.5V19689V19293.5V18898H15020C15020 19293.5 15222.8 19373.7 15225.1 19689C15227.3 20013.1 15020 20130.5 15020 20503C15020 20875.5 15222.8 20964.5 15225.1 21271C15227.4 21586.3 15020 21666.5 15020 22062Z" fill="black"/>
<path d="M13678 22062H12847V22458V22854V23250V23646V24042V24438V24834V25230H13678C13678 24834 13475.2 24753.7 13472.9 24438C13470.7 24113.5 13678 23995.9 13678 23623C13678 23250 13475.2 23160.9 13472.9 22854C13470.6 22538.3 13678 22458 13678 22062Z" fill="#333333"/>
<path d="M12016 25226H12847V24830V24434V24038V23642V23246V22850V22454V22058H12016C12016 22454 12218.8 22534.3 12221.1 22850C12223.3 23174.5 12016 23292.1 12016 23665C12016 24038 12218.8 24127.1 12221.1 24434C12223.4 24749.7 12016 24830 12016 25226Z" fill="#333333"/>
<path d="M12016 22062H12847V21666V21270V20874V20478V20082V19686V19290V18894H12016C12016 19290 12218.8 19370.3 12221.1 19686C12223.3 20010.5 12016 20128.1 12016 20501C12016 20874 12218.8 20963.1 12221.1 21270C12223.4 21585.7 12016 21666 12016 22062Z" fill="#333333"/>
<path d="M12016 18898H12847V18502V18106V17710V17314V16918V16522V16126V15730H12016C12016 16126 12218.8 16206.3 12221.1 16522C12223.3 16846.5 12016 16964.1 12016 17337C12016 17710 12218.8 17799.1 12221.1 18106C12223.4 18421.7 12016 18502 12016 18898Z" fill="#333333"/>
<path d="M12016 15734H12847V15338V14942V14546V14150V13754V13358V12962V12566H12016C12016 12962 12218.8 13042.3 12221.1 13358C12223.3 13682.5 12016 13800.1 12016 14173C12016 14546 12218.8 14635.1 12221.1 14942C12223.4 15257.7 12016 15338 12016 15734Z" fill="#333333"/>
<path d="M15020 25226H15851V24830.5V24435V24039.5V23644V23248.5V22853V22457.5V22062H15020C15020 22457.5 15222.8 22537.7 15225.1 22853C15227.3 23177.1 15020 23294.5 15020 23667C15020 24039.5 15222.8 24128.5 15225.1 24435C15227.4 24750.3 15020 24830.5 15020 25226Z" fill="black"/>
<path d="M16682 15734H15851V15338.5V14943V14547.5V14152V13756.5V13361V12965.5V12570H16682C16682 12965.5 16479.2 13045.7 16476.9 13361C16474.7 13685.1 16682 13802.5 16682 14175C16682 14547.5 16479.2 14636.5 16476.9 14943C16474.6 15258.3 16682 15338.5 16682 15734Z" fill="black"/>
<path d="M16682 18898H15851V18502.5V18107V17711.5V17316V16920.5V16525V16129.5V15734H16682C16682 16129.5 16479.2 16209.7 16476.9 16525C16474.7 16849.1 16682 16966.5 16682 17339C16682 17711.5 16479.2 17800.5 16476.9 18107C16474.6 18422.3 16682 18502.5 16682 18898Z" fill="black"/>
<path d="M16682 22062H15851V21666.5V21271V20875.5V20480V20084.5V19689V19293.5V18898H16682C16682 19293.5 16479.2 19373.7 16476.9 19689C16474.7 20013.1 16682 20130.5 16682 20503C16682 20875.5 16479.2 20964.5 16476.9 21271C16474.6 21586.3 16682 21666.5 16682 22062Z" fill="black"/>
<path d="M16682 25226H15851V24830.5V24435V24039.5V23644V23248.5V22853V22457.5V22062H16682C16682 22457.5 16479.2 22537.7 16476.9 22853C16474.7 23177.1 16682 23294.5 16682 23667C16682 24039.5 16479.2 24128.5 16476.9 24435C16474.6 24750.3 16682 24830.5 16682 25226Z" fill="black"/>
<path d="M19686 12570H18855V12966V13362V13758V14154V14550V14946V15342V15738H19686C19686 15342 19483.2 15261.7 19480.9 14946C19478.7 14621.5 19686 14503.9 19686 14131C19686 13758 19483.2 13668.9 19480.9 13362C19478.6 13046.3 19686 12966 19686 12570Z" fill="#333333"/>
<path d="M21028 15734H21859V15338.5V14943V14547.5V14152V13756.5V13361V12965.5V12570H21028C21028 12965.5 21230.8 13045.7 21233.1 13361C21235.3 13685.1 21028 13802.5 21028 14175C21028 14547.5 21230.8 14636.5 21233.1 14943C21235.4 15258.3 21028 15338.5 21028 15734Z" fill="black"/>
<path d="M19686 15734H18855V16130V16526V16922V17318V17714V18110V18506V18902H19686C19686 18506 19483.2 18425.7 19480.9 18110C19478.7 17785.5 19686 17667.9 19686 17295C19686 16922 19483.2 16832.9 19480.9 16526C19478.6 16210.3 19686 16130 19686 15734Z" fill="#333333"/>
<path d="M21028 18898H21859V18502.5V18107V17711.5V17316V16920.5V16525V16129.5V15734H21028C21028 16129.5 21230.8 16209.7 21233.1 16525C21235.3 16849.1 21028 16966.5 21028 17339C21028 17711.5 21230.8 17800.5 21233.1 18107C21235.4 18422.3 21028 18502.5 21028 18898Z" fill="black"/>
<path d="M19686 18898H18855V19294V19690V20086V20482V20878V21274V21670V22066H19686C19686 21670 19483.2 21589.7 19480.9 21274C19478.7 20949.5 19686 20831.9 19686 20459C19686 20086 19483.2 19996.9 19480.9 19690C19478.6 19374.3 19686 19294 19686 18898Z" fill="#333333"/>
<path d="M21028 22062H21859V21666.5V21271V20875.5V20480V20084.5V19689V19293.5V18898H21028C21028 19293.5 21230.8 19373.7 21233.1 19689C21235.3 20013.1 21028 20130.5 21028 20503C21028 20875.5 21230.8 20964.5 21233.1 21271C21235.4 21586.3 21028 21666.5 21028 22062Z" fill="black"/>
<path d="M19686 22062H18855V22458V22854V23250V23646V24042V24438V24834V25230H19686C19686 24834 19483.2 24753.7 19480.9 24438C19478.7 24113.5 19686 23995.9 19686 23623C19686 23250 19483.2 23160.9 19480.9 22854C19478.6 22538.3 19686 22458 19686 22062Z" fill="#333333"/>
<path d="M18024 25226H19044V24830V24434V24038V23642V23246V22850V22454V22058H18024C18024 22454 18273 22534.3 18275.7 22850C18278.5 23174.5 18024 23292.1 18024 23665C18024 24038 18272.9 24127.1 18275.7 24434C18278.6 24749.7 18024 24830 18024 25226Z" fill="#333333"/>
<path d="M18024 22062H19044V21666V21270V20874V20478V20082V19686V19290V18894H18024C18024 19290 18273 19370.3 18275.7 19686C18278.5 20010.5 18024 20128.1 18024 20501C18024 20874 18272.9 20963.1 18275.7 21270C18278.6 21585.7 18024 21666 18024 22062Z" fill="#333333"/>
<path d="M18024 18898H19044V18502V18106V17710V17314V16918V16522V16126V15730H18024C18024 16126 18273 16206.3 18275.7 16522C18278.5 16846.5 18024 16964.1 18024 17337C18024 17710 18272.9 17799.1 18275.7 18106C18278.6 18421.7 18024 18502 18024 18898Z" fill="#333333"/>
<path d="M18024 15734H19044V15338V14942V14546V14150V13754V13358V12962V12566H18024C18024 12962 18273 13042.3 18275.7 13358C18278.5 13682.5 18024 13800.1 18024 14173C18024 14546 18272.9 14635.1 18275.7 14942C18278.6 15257.7 18024 15338 18024 15734Z" fill="#333333"/>
<path d="M21028 25226H21859V24830.5V24435V24039.5V23644V23248.5V22853V22457.5V22062H21028C21028 22457.5 21230.8 22537.7 21233.1 22853C21235.3 23177.1 21028 23294.5 21028 23667C21028 24039.5 21230.8 24128.5 21233.1 24435C21235.4 24750.3 21028 24830.5 21028 25226Z" fill="black"/>
<path d="M22690 15734H21859V15338.5V14943V14547.5V14152V13756.5V13361V12965.5V12570H22690C22690 12965.5 22487.2 13045.7 22484.9 13361C22482.7 13685.1 22690 13802.5 22690 14175C22690 14547.5 22487.2 14636.5 22484.9 14943C22482.6 15258.3 22690 15338.5 22690 15734Z" fill="black"/>
<path d="M22690 18898H21859V18502.5V18107V17711.5V17316V16920.5V16525V16129.5V15734H22690C22690 16129.5 22487.2 16209.7 22484.9 16525C22482.7 16849.1 22690 16966.5 22690 17339C22690 17711.5 22487.2 17800.5 22484.9 18107C22482.6 18422.3 22690 18502.5 22690 18898Z" fill="black"/>
<path d="M22690 22062H21859V21666.5V21271V20875.5V20480V20084.5V19689V19293.5V18898H22690C22690 19293.5 22487.2 19373.7 22484.9 19689C22482.7 20013.1 22690 20130.5 22690 20503C22690 20875.5 22487.2 20964.5 22484.9 21271C22482.6 21586.3 22690 21666.5 22690 22062Z" fill="black"/>
<path d="M22690 25226H21859V24830.5V24435V24039.5V23644V23248.5V22853V22457.5V22062H22690C22690 22457.5 22487.2 22537.7 22484.9 22853C22482.7 23177.1 22690 23294.5 22690 23667C22690 24039.5 22487.2 24128.5 22484.9 24435C22482.6 24750.3 22690 24830.5 22690 25226Z" fill="black"/>
<path d="M1662 12566H831V12962V13358L831 13754V14150V14546V14942V15338L831 15734H1662C1662 15338 1459.16 15257.7 1456.94 14942C1454.66 14617.5 1662 14499.9 1662 14127C1662 13754 1459.22 13664.9 1456.94 13358C1454.59 13042.3 1662 12962 1662 12566Z" fill="#333333"/>
<path d="M3004 15730H3835V15334.5V14939V14543.5V14148V13752.5V13357V12961.5V12566H3004C3004 12961.5 3206.84 13041.7 3209.06 13357C3211.34 13681.1 3004 13798.5 3004 14171C3004 14543.5 3206.78 14632.5 3209.06 14939C3211.41 15254.3 3004 15334.5 3004 15730Z" fill="black"/>
<path d="M1662 15730H831V16126V16522L831 16918V17314V17710V18106V18502L831 18898H1662C1662 18502 1459.16 18421.7 1456.94 18106C1454.66 17781.5 1662 17663.9 1662 17291C1662 16918 1459.22 16828.9 1456.94 16522C1454.59 16206.3 1662 16126 1662 15730Z" fill="#333333"/>
<path d="M3004 18894H3835V18498.5V18103V17707.5V17312V16916.5V16521V16125.5V15730H3004C3004 16125.5 3206.84 16205.7 3209.06 16521C3211.34 16845.1 3004 16962.5 3004 17335C3004 17707.5 3206.78 17796.5 3209.06 18103C3211.41 18418.3 3004 18498.5 3004 18894Z" fill="black"/>
<path d="M1662 18894H831V19290V19686L831 20082V20478V20874V21270V21666L831 22062H1662C1662 21666 1459.16 21585.7 1456.94 21270C1454.66 20945.5 1662 20827.9 1662 20455C1662 20082 1459.22 19992.9 1456.94 19686C1454.59 19370.3 1662 19290 1662 18894Z" fill="#333333"/>
<path d="M3004 22058H3835V21662.5V21267V20871.5V20476V20080.5V19685V19289.5V18894H3004C3004 19289.5 3206.84 19369.7 3209.06 19685C3211.34 20009.1 3004 20126.5 3004 20499C3004 20871.5 3206.78 20960.5 3209.06 21267C3211.41 21582.3 3004 21662.5 3004 22058Z" fill="black"/>
<path d="M1662 22058H831V22454V22850L831 23246V23642V24038V24434V24830L831 25226H1662C1662 24830 1459.16 24749.7 1456.94 24434C1454.66 24109.5 1662 23991.9 1662 23619C1662 23246 1459.22 23156.9 1456.94 22850C1454.59 22534.3 1662 22454 1662 22058Z" fill="#333333"/>
<path d="M0 25222H879V24826V24430L879 24034V23638V23242V22846V22450L879 22054H0C0 22450 214.557 22530.3 216.905 22846C219.318 23170.5 4.7308e-06 23288.1 0 23661C-4.7308e-06 24034 214.492 24123.1 216.905 24430C219.387 24745.7 6.01985e-05 24826 0 25222Z" fill="#333333"/>
<path d="M0 22058H879V21662V21266L879 20870V20474V20078V19682V19286L879 18890H0C0 19286 214.557 19366.3 216.905 19682C219.318 20006.5 4.7308e-06 20124.1 0 20497C-4.7308e-06 20870 214.492 20959.1 216.905 21266C219.387 21581.7 6.01985e-05 21662 0 22058Z" fill="#333333"/>
<path d="M0 18894H879V18498V18102L879 17706V17310V16914V16518V16122L879 15726H0C0 16122 214.557 16202.3 216.905 16518C219.318 16842.5 4.7308e-06 16960.1 0 17333C-4.7308e-06 17706 214.492 17795.1 216.905 18102C219.387 18417.7 6.01985e-05 18498 0 18894Z" fill="#333333"/>
<path d="M0 15730H879V15334V14938L879 14542V14146V13750V13354V12958L879 12562H0C0 12958 214.557 13038.3 216.905 13354C219.318 13678.5 4.7308e-06 13796.1 0 14169C-4.7308e-06 14542 214.492 14631.1 216.905 14938C219.387 15253.7 6.01985e-05 15334 0 15730Z" fill="#333333"/>
<path d="M3004 25222H3835V24826.5V24431V24035.5V23640V23244.5V22849V22453.5V22058H3004C3004 22453.5 3206.84 22533.7 3209.06 22849C3211.34 23173.1 3004 23290.5 3004 23663C3004 24035.5 3206.78 24124.5 3209.06 24431C3211.41 24746.3 3004 24826.5 3004 25222Z" fill="black"/>
<path d="M4666 15730H3835V15334.5V14939V14543.5V14148V13752.5V13357V12961.5V12566H4666C4666 12961.5 4463.16 13041.7 4460.94 13357C4458.66 13681.1 4666 13798.5 4666 14171C4666 14543.5 4463.22 14632.5 4460.94 14939C4458.59 15254.3 4666 15334.5 4666 15730Z" fill="black"/>
<path d="M4666 18894H3835V18498.5V18103V17707.5V17312V16916.5V16521V16125.5V15730H4666C4666 16125.5 4463.16 16205.7 4460.94 16521C4458.66 16845.1 4666 16962.5 4666 17335C4666 17707.5 4463.22 17796.5 4460.94 18103C4458.59 18418.3 4666 18498.5 4666 18894Z" fill="black"/>
<path d="M4666 22058H3835V21662.5V21267V20871.5V20476V20080.5V19685V19289.5V18894H4666C4666 19289.5 4463.16 19369.7 4460.94 19685C4458.66 20009.1 4666 20126.5 4666 20499C4666 20871.5 4463.22 20960.5 4460.94 21267C4458.59 21582.3 4666 21662.5 4666 22058Z" fill="black"/>
<path d="M4666 25222H3835V24826.5V24431V24035.5V23640V23244.5V22849V22453.5V22058H4666C4666 22453.5 4463.16 22533.7 4460.94 22849C4458.66 23173.1 4666 23290.5 4666 23663C4666 24035.5 4463.22 24124.5 4460.94 24431C4458.59 24746.3 4666 24826.5 4666 25222Z" fill="black"/>
<path d="M7670 12566H6839V12962V13358V13754V14150V14546V14942V15338V15734H7670C7670 15338 7467.16 15257.7 7464.94 14942C7462.66 14617.5 7670 14499.9 7670 14127C7670 13754 7467.22 13664.9 7464.94 13358C7462.59 13042.3 7670 12962 7670 12566Z" fill="#333333"/>
<path d="M9012 15730H9843V15334.5V14939V14543.5V14148V13752.5V13357V12961.5V12566H9012C9012 12961.5 9214.84 13041.7 9217.06 13357C9219.34 13681.1 9012 13798.5 9012 14171C9012 14543.5 9214.78 14632.5 9217.06 14939C9219.41 15254.3 9012 15334.5 9012 15730Z" fill="black"/>
<path d="M7670 15730H6839V16126V16522V16918V17314V17710V18106V18502V18898H7670C7670 18502 7467.16 18421.7 7464.94 18106C7462.66 17781.5 7670 17663.9 7670 17291C7670 16918 7467.22 16828.9 7464.94 16522C7462.59 16206.3 7670 16126 7670 15730Z" fill="#333333"/>
<path d="M9012 18894H9843V18498.5V18103V17707.5V17312V16916.5V16521V16125.5V15730H9012C9012 16125.5 9214.84 16205.7 9217.06 16521C9219.34 16845.1 9012 16962.5 9012 17335C9012 17707.5 9214.78 17796.5 9217.06 18103C9219.41 18418.3 9012 18498.5 9012 18894Z" fill="black"/>
<path d="M7670 18894H6839V19290V19686V20082V20478V20874V21270V21666V22062H7670C7670 21666 7467.16 21585.7 7464.94 21270C7462.66 20945.5 7670 20827.9 7670 20455C7670 20082 7467.22 19992.9 7464.94 19686C7462.59 19370.3 7670 19290 7670 18894Z" fill="#333333"/>
<path d="M9012 22058H9843V21662.5V21267V20871.5V20476V20080.5V19685V19289.5V18894H9012C9012 19289.5 9214.84 19369.7 9217.06 19685C9219.34 20009.1 9012 20126.5 9012 20499C9012 20871.5 9214.78 20960.5 9217.06 21267C9219.41 21582.3 9012 21662.5 9012 22058Z" fill="black"/>
<path d="M7670 22058H6839V22454V22850V23246V23642V24038V24434V24830V25226H7670C7670 24830 7467.16 24749.7 7464.94 24434C7462.66 24109.5 7670 23991.9 7670 23619C7670 23246 7467.22 23156.9 7464.94 22850C7462.59 22534.3 7670 22454 7670 22058Z" fill="#333333"/>
<path d="M6008 25222H7100V24826V24430V24034V23638V23242V22846V22450V22054H6008C6008 22450 6274.55 22530.3 6277.47 22846C6280.46 23170.5 6008 23288.1 6008 23661C6008 24034 6274.47 24123.1 6277.47 24430C6280.55 24745.7 6008 24826 6008 25222Z" fill="#333333"/>
<path d="M6008 22058H7100V21662V21266V20870V20474V20078V19682V19286V18890H6008C6008 19286 6274.55 19366.3 6277.47 19682C6280.46 20006.5 6008 20124.1 6008 20497C6008 20870 6274.47 20959.1 6277.47 21266C6280.55 21581.7 6008 21662 6008 22058Z" fill="#333333"/>
<path d="M6008 18894H7100V18498V18102V17706V17310V16914V16518V16122V15726H6008C6008 16122 6274.55 16202.3 6277.47 16518C6280.46 16842.5 6008 16960.1 6008 17333C6008 17706 6274.47 17795.1 6277.47 18102C6280.55 18417.7 6008 18498 6008 18894Z" fill="#333333"/>
<path d="M6008 15730H7100V15334V14938V14542V14146V13750V13354V12958V12562H6008C6008 12958 6274.55 13038.3 6277.47 13354C6280.46 13678.5 6008 13796.1 6008 14169C6008 14542 6274.47 14631.1 6277.47 14938C6280.55 15253.7 6008 15334 6008 15730Z" fill="#333333"/>
<path d="M9012 25222H9843V24826.5V24431V24035.5V23640V23244.5V22849V22453.5V22058H9012C9012 22453.5 9214.84 22533.7 9217.06 22849C9219.34 23173.1 9012 23290.5 9012 23663C9012 24035.5 9214.78 24124.5 9217.06 24431C9219.41 24746.3 9012 24826.5 9012 25222Z" fill="black"/>
<path d="M10674 15730H9843V15334.5V14939V14543.5V14148V13752.5V13357V12961.5V12566H10674C10674 12961.5 10471.2 13041.7 10468.9 13357C10466.7 13681.1 10674 13798.5 10674 14171C10674 14543.5 10471.2 14632.5 10468.9 14939C10466.6 15254.3 10674 15334.5 10674 15730Z" fill="black"/>
<path d="M10674 18894H9843V18498.5V18103V17707.5V17312V16916.5V16521V16125.5V15730H10674C10674 16125.5 10471.2 16205.7 10468.9 16521C10466.7 16845.1 10674 16962.5 10674 17335C10674 17707.5 10471.2 17796.5 10468.9 18103C10466.6 18418.3 10674 18498.5 10674 18894Z" fill="black"/>
<path d="M10674 22058H9843V21662.5V21267V20871.5V20476V20080.5V19685V19289.5V18894H10674C10674 19289.5 10471.2 19369.7 10468.9 19685C10466.7 20009.1 10674 20126.5 10674 20499C10674 20871.5 10471.2 20960.5 10468.9 21267C10466.6 21582.3 10674 21662.5 10674 22058Z" fill="black"/>
<path d="M10674 25222H9843V24826.5V24431V24035.5V23640V23244.5V22849V22453.5V22058H10674C10674 22453.5 10471.2 22533.7 10468.9 22849C10466.7 23173.1 10674 23290.5 10674 23663C10674 24035.5 10471.2 24124.5 10468.9 24431C10466.6 24746.3 10674 24826.5 10674 25222Z" fill="black"/>
<path d="M13678 4L12847 4V400V796V1192V1588V1984V2380V2776V3172H13678C13678 2776 13475.2 2695.71 13472.9 2380C13470.7 2055.47 13678 1937.94 13678 1564.97C13678 1192 13475.2 1102.9 13472.9 796C13470.6 480.29 13678 400 13678 4Z" fill="#333333"/>
<path d="M15020 3168H15851V2772.5V2377V1981.5V1586V1190.5V795V399.5V4H15020C15020 399.5 15222.8 479.688 15225.1 795C15227.3 1119.12 15020 1236.51 15020 1609C15020 1981.5 15222.8 2070.48 15225.1 2377C15227.4 2692.31 15020 2772.5 15020 3168Z" fill="black"/>
<path d="M13678 3168H12847V3564V3960V4356V4752V5148V5544V5940V6336H13678C13678 5940 13475.2 5859.71 13472.9 5544C13470.7 5219.47 13678 5101.94 13678 4728.97C13678 4356 13475.2 4266.9 13472.9 3960C13470.6 3644.29 13678 3564 13678 3168Z" fill="#333333"/>
<path d="M15020 6332H15851V5936.5V5541V5145.5V4750V4354.5V3959V3563.5V3168H15020C15020 3563.5 15222.8 3643.69 15225.1 3959C15227.3 4283.12 15020 4400.51 15020 4773C15020 5145.5 15222.8 5234.48 15225.1 5541C15227.4 5856.31 15020 5936.5 15020 6332Z" fill="black"/>
<path d="M13678 6332H12847V6728V7124V7520V7916V8312V8708V9104V9500H13678C13678 9104 13475.2 9023.71 13472.9 8708C13470.7 8383.47 13678 8265.94 13678 7892.97C13678 7520 13475.2 7430.9 13472.9 7124C13470.6 6808.29 13678 6728 13678 6332Z" fill="#333333"/>
<path d="M15020 9496H15851V9100.5V8705V8309.5V7914V7518.5V7123V6727.5V6332H15020C15020 6727.5 15222.8 6807.69 15225.1 7123C15227.3 7447.12 15020 7564.51 15020 7937C15020 8309.5 15222.8 8398.48 15225.1 8705C15227.4 9020.31 15020 9100.5 15020 9496Z" fill="black"/>
<path d="M13678 9496H12847V9892V10288V10684V11080V11476V11872V12268V12664H13678C13678 12268 13475.2 12187.7 13472.9 11872C13470.7 11547.5 13678 11429.9 13678 11057C13678 10684 13475.2 10594.9 13472.9 10288C13470.6 9972.29 13678 9892 13678 9496Z" fill="#333333"/>
<path d="M12016 12660H12847V12264V11868V11472V11076V10680V10284V9888V9492H12016C12016 9888 12218.8 9968.29 12221.1 10284C12223.3 10608.5 12016 10726.1 12016 11099C12016 11472 12218.8 11561.1 12221.1 11868C12223.4 12183.7 12016 12264 12016 12660Z" fill="#333333"/>
<path d="M12016 9496H12847V9100V8704V8308V7912V7516V7120V6724V6328H12016C12016 6724 12218.8 6804.29 12221.1 7120C12223.3 7444.53 12016 7562.06 12016 7935.03C12016 8308 12218.8 8397.1 12221.1 8704C12223.4 9019.71 12016 9100 12016 9496Z" fill="#333333"/>
<path d="M12016 6332H12847V5936V5540V5144V4748V4352V3956V3560V3164H12016C12016 3560 12218.8 3640.29 12221.1 3956C12223.3 4280.53 12016 4398.06 12016 4771.03C12016 5144 12218.8 5233.1 12221.1 5540C12223.4 5855.71 12016 5936 12016 6332Z" fill="#333333"/>
<path d="M12016 3168H12847V2772V2376V1980V1584V1188V792V396V0H12016C12016 396 12218.8 476.29 12221.1 792C12223.3 1116.53 12016 1234.06 12016 1607.03C12016 1980 12218.8 2069.1 12221.1 2376C12223.4 2691.71 12016 2772 12016 3168Z" fill="#333333"/>
<path d="M15020 12660H15851V12264.5V11869V11473.5V11078V10682.5V10287V9891.5V9496H15020C15020 9891.5 15222.8 9971.69 15225.1 10287C15227.3 10611.1 15020 10728.5 15020 11101C15020 11473.5 15222.8 11562.5 15225.1 11869C15227.4 12184.3 15020 12264.5 15020 12660Z" fill="black"/>
<path d="M16682 3168H15851V2772.5V2377V1981.5V1586V1190.5V795V399.5V4H16682C16682 399.5 16479.2 479.688 16476.9 795C16474.7 1119.12 16682 1236.51 16682 1609C16682 1981.5 16479.2 2070.48 16476.9 2377C16474.6 2692.31 16682 2772.5 16682 3168Z" fill="black"/>
<path d="M16682 6332H15851V5936.5V5541V5145.5V4750V4354.5V3959V3563.5V3168H16682C16682 3563.5 16479.2 3643.69 16476.9 3959C16474.7 4283.12 16682 4400.51 16682 4773C16682 5145.5 16479.2 5234.48 16476.9 5541C16474.6 5856.31 16682 5936.5 16682 6332Z" fill="black"/>
<path d="M16682 9496H15851V9100.5V8705V8309.5V7914V7518.5V7123V6727.5V6332H16682C16682 6727.5 16479.2 6807.69 16476.9 7123C16474.7 7447.12 16682 7564.51 16682 7937C16682 8309.5 16479.2 8398.48 16476.9 8705C16474.6 9020.31 16682 9100.5 16682 9496Z" fill="black"/>
<path d="M16682 12660H15851V12264.5V11869V11473.5V11078V10682.5V10287V9891.5V9496H16682C16682 9891.5 16479.2 9971.69 16476.9 10287C16474.7 10611.1 16682 10728.5 16682 11101C16682 11473.5 16479.2 11562.5 16476.9 11869C16474.6 12184.3 16682 12264.5 16682 12660Z" fill="black"/>
<path d="M19686 4L18855 4V400V796V1192V1588V1984V2380V2776V3172H19686C19686 2776 19483.2 2695.71 19480.9 2380C19478.7 2055.47 19686 1937.94 19686 1564.97C19686 1192 19483.2 1102.9 19480.9 796C19478.6 480.29 19686 400 19686 4Z" fill="#333333"/>
<path d="M21028 3168H21859V2772.5V2377V1981.5V1586V1190.5V795V399.5V4H21028C21028 399.5 21230.8 479.688 21233.1 795C21235.3 1119.12 21028 1236.51 21028 1609C21028 1981.5 21230.8 2070.48 21233.1 2377C21235.4 2692.31 21028 2772.5 21028 3168Z" fill="black"/>
<path d="M19686 3168H18855V3564V3960V4356V4752V5148V5544V5940V6336H19686C19686 5940 19483.2 5859.71 19480.9 5544C19478.7 5219.47 19686 5101.94 19686 4728.97C19686 4356 19483.2 4266.9 19480.9 3960C19478.6 3644.29 19686 3564 19686 3168Z" fill="#333333"/>
<path d="M21028 6332H21859V5936.5V5541V5145.5V4750V4354.5V3959V3563.5V3168H21028C21028 3563.5 21230.8 3643.69 21233.1 3959C21235.3 4283.12 21028 4400.51 21028 4773C21028 5145.5 21230.8 5234.48 21233.1 5541C21235.4 5856.31 21028 5936.5 21028 6332Z" fill="black"/>
<path d="M19686 6332H18855V6728V7124V7520V7916V8312V8708V9104V9500H19686C19686 9104 19483.2 9023.71 19480.9 8708C19478.7 8383.47 19686 8265.94 19686 7892.97C19686 7520 19483.2 7430.9 19480.9 7124C19478.6 6808.29 19686 6728 19686 6332Z" fill="#333333"/>
<path d="M21028 9496H21859V9100.5V8705V8309.5V7914V7518.5V7123V6727.5V6332H21028C21028 6727.5 21230.8 6807.69 21233.1 7123C21235.3 7447.12 21028 7564.51 21028 7937C21028 8309.5 21230.8 8398.48 21233.1 8705C21235.4 9020.31 21028 9100.5 21028 9496Z" fill="black"/>
<path d="M19686 9496H18855V9892V10288V10684V11080V11476V11872V12268V12664H19686C19686 12268 19483.2 12187.7 19480.9 11872C19478.7 11547.5 19686 11429.9 19686 11057C19686 10684 19483.2 10594.9 19480.9 10288C19478.6 9972.29 19686 9892 19686 9496Z" fill="#333333"/>
<path d="M18024 12660H19044V12264V11868V11472V11076V10680V10284V9888V9492H18024C18024 9888 18273 9968.29 18275.7 10284C18278.5 10608.5 18024 10726.1 18024 11099C18024 11472 18272.9 11561.1 18275.7 11868C18278.6 12183.7 18024 12264 18024 12660Z" fill="#333333"/>
<path d="M18024 9496H19044V9100V8704V8308V7912V7516V7120V6724V6328H18024C18024 6724 18273 6804.29 18275.7 7120C18278.5 7444.53 18024 7562.06 18024 7935.03C18024 8308 18272.9 8397.1 18275.7 8704C18278.6 9019.71 18024 9100 18024 9496Z" fill="#333333"/>
<path d="M18024 6332H19044V5936V5540V5144V4748V4352V3956V3560V3164H18024C18024 3560 18273 3640.29 18275.7 3956C18278.5 4280.53 18024 4398.06 18024 4771.03C18024 5144 18272.9 5233.1 18275.7 5540C18278.6 5855.71 18024 5936 18024 6332Z" fill="#333333"/>
<path d="M18024 3168H19044V2772V2376V1980V1584V1188V792V396V0H18024C18024 396 18273 476.29 18275.7 792C18278.5 1116.53 18024 1234.06 18024 1607.03C18024 1980 18272.9 2069.1 18275.7 2376C18278.6 2691.71 18024 2772 18024 3168Z" fill="#333333"/>
<path d="M21028 12660H21859V12264.5V11869V11473.5V11078V10682.5V10287V9891.5V9496H21028C21028 9891.5 21230.8 9971.69 21233.1 10287C21235.3 10611.1 21028 10728.5 21028 11101C21028 11473.5 21230.8 11562.5 21233.1 11869C21235.4 12184.3 21028 12264.5 21028 12660Z" fill="black"/>
<path d="M22690 3168H21859V2772.5V2377V1981.5V1586V1190.5V795V399.5V4H22690C22690 399.5 22487.2 479.688 22484.9 795C22482.7 1119.12 22690 1236.51 22690 1609C22690 1981.5 22487.2 2070.48 22484.9 2377C22482.6 2692.31 22690 2772.5 22690 3168Z" fill="black"/>
<path d="M22690 6332H21859V5936.5V5541V5145.5V4750V4354.5V3959V3563.5V3168H22690C22690 3563.5 22487.2 3643.69 22484.9 3959C22482.7 4283.12 22690 4400.51 22690 4773C22690 5145.5 22487.2 5234.48 22484.9 5541C22482.6 5856.31 22690 5936.5 22690 6332Z" fill="black"/>
<path d="M22690 9496H21859V9100.5V8705V8309.5V7914V7518.5V7123V6727.5V6332H22690C22690 6727.5 22487.2 6807.69 22484.9 7123C22482.7 7447.12 22690 7564.51 22690 7937C22690 8309.5 22487.2 8398.48 22484.9 8705C22482.6 9020.31 22690 9100.5 22690 9496Z" fill="black"/>
<path d="M22690 12660H21859V12264.5V11869V11473.5V11078V10682.5V10287V9891.5V9496H22690C22690 9891.5 22487.2 9971.69 22484.9 10287C22482.7 10611.1 22690 10728.5 22690 11101C22690 11473.5 22487.2 11562.5 22484.9 11869C22482.6 12184.3 22690 12264.5 22690 12660Z" fill="black"/>
</svg>
