<svg width="31496" height="25002" viewBox="0 0 31496 25002" fill="none" xmlns="http://www.w3.org/2000/svg">
<path d="M1579 62L748 62V458V854L748 1250V1646V2042V2438V2834L748 3230H1579C1579 2834 1376.16 2753.71 1373.94 2438C1371.66 2113.47 1579 1995.94 1579 1622.97C1579 1250 1376.22 1160.9 1373.94 854C1371.59 538.29 1579 458 1579 62Z" fill="#333333"/>
<path d="M4147 3226H4978V2830.5V2435V2039.5V1644V1248.5V853V457.5V62H4147C4147 457.5 4349.84 537.688 4352.06 853C4354.34 1177.12 4147 1294.51 4147 1667C4147 2039.5 4349.78 2128.48 4352.06 2435C4354.41 2750.31 4147 2830.5 4147 3226Z" fill="black"/>
<path d="M0 3230H831V2834V2438L831 2042V1646V1250V854V458L831 62H0C0 458 202.841 538.29 205.06 854C207.342 1178.53 4.47246e-06 1296.06 0 1669.03C-4.47246e-06 2042 202.779 2131.1 205.06 2438C207.407 2753.71 5.69112e-05 2834 0 3230Z" fill="#333333"/>
<path d="M5754 3226H4923V2830.5V2435V2039.5V1644V1248.5V853V457.5V62H5754C5754 457.5 5551.16 537.688 5548.94 853C5546.66 1177.12 5754 1294.51 5754 1667C5754 2039.5 5551.22 2128.48 5548.94 2435C5546.59 2750.31 5754 2830.5 5754 3226Z" fill="black"/>
<path d="M1579 3194H746V3590.12V3986.25L746 4382.37V4778.5V5174.62V5570.75V5966.88L746 6363H1579C1579 5966.88 1375.67 5886.56 1373.45 5570.75C1371.16 5246.12 1579 5128.55 1579 4755.46C1579 4382.38 1375.73 4293.25 1373.45 3986.25C1371.09 3670.44 1579 3590.13 1579 3194Z" fill="#333333"/>
<path d="M4147 6358H4980V5962.38V5566.75V5171.13V4775.5V4379.88V3984.25V3588.62V3193H4147C4147 3588.62 4350.33 3668.84 4352.55 3984.25C4354.84 4308.47 4147 4425.9 4147 4798.51C4147 5171.12 4350.27 5260.14 4352.55 5566.75C4354.91 5882.16 4147 5962.37 4147 6358Z" fill="black"/>
<path d="M0 6362H833V5965.88V5569.75L833 5173.63V4777.5V4381.38V3985.25V3589.12L833 3193H0C0 3589.13 203.329 3669.44 205.554 3985.25C207.841 4309.88 4.48322e-06 4427.45 0 4800.54C-4.48322e-06 5173.62 203.267 5262.75 205.554 5569.75C207.906 5885.56 5.70482e-05 5965.87 0 6362Z" fill="#333333"/>
<path d="M5754 6358H4921V5962.38V5566.75V5171.13V4775.5V4379.88V3984.25V3588.62V3193H5754C5754 3588.62 5550.67 3668.84 5548.45 3984.25C5546.16 4308.47 5754 4425.9 5754 4798.51C5754 5171.12 5550.73 5260.14 5548.45 5566.75C5546.09 5882.16 5754 5962.37 5754 6358Z" fill="black"/>
<path d="M9901 79L9070 79V475V871V1267V1663V2059V2455V2851V3247H9901C9901 2851 9698.16 2770.71 9695.94 2455C9693.66 2130.47 9901 2012.94 9901 1639.97C9901 1267 9698.22 1177.9 9695.94 871C9693.59 555.29 9901 475 9901 79Z" fill="#333333"/>
<path d="M12469 3243H13300V2847.5V2452V2056.5V1661V1265.5V870V474.5V79H12469C12469 474.5 12671.8 554.688 12674.1 870C12676.3 1194.12 12469 1311.51 12469 1684C12469 2056.5 12671.8 2145.48 12674.1 2452C12676.4 2767.31 12469 2847.5 12469 3243Z" fill="black"/>
<path d="M8322 3247H9153V2851V2455V2059V1663V1267V871V475V79H8322C8322 475 8524.84 555.29 8527.06 871C8529.34 1195.53 8322 1313.06 8322 1686.03C8322 2059 8524.78 2148.1 8527.06 2455C8529.41 2770.71 8322 2851 8322 3247Z" fill="#333333"/>
<path d="M14076 3243H13245V2847.5V2452V2056.5V1661V1265.5V870V474.5V79H14076C14076 474.5 13873.2 554.688 13870.9 870C13868.7 1194.12 14076 1311.51 14076 1684C14076 2056.5 13873.2 2145.48 13870.9 2452C13868.6 2767.31 14076 2847.5 14076 3243Z" fill="black"/>
<path d="M9901 3211H9068V3607.12V4003.25V4399.37V4795.5V5191.62V5587.75V5983.88V6380H9901C9901 5983.88 9697.67 5903.56 9695.45 5587.75C9693.16 5263.12 9901 5145.55 9901 4772.46C9901 4399.38 9697.73 4310.25 9695.45 4003.25C9693.09 3687.44 9901 3607.13 9901 3211Z" fill="#333333"/>
<path d="M12469 6375H13302V5979.38V5583.75V5188.13V4792.5V4396.88V4001.25V3605.62V3210H12469C12469 3605.62 12672.3 3685.84 12674.6 4001.25C12676.8 4325.47 12469 4442.9 12469 4815.51C12469 5188.12 12672.3 5277.14 12674.6 5583.75C12676.9 5899.16 12469 5979.37 12469 6375Z" fill="black"/>
<path d="M8322 6379H9155V5982.88V5586.75V5190.63V4794.5V4398.38V4002.25V3606.12V3210H8322C8322 3606.13 8525.33 3686.44 8527.55 4002.25C8529.84 4326.88 8322 4444.45 8322 4817.54C8322 5190.62 8525.27 5279.75 8527.55 5586.75C8529.91 5902.56 8322 5982.87 8322 6379Z" fill="#333333"/>
<path d="M14076 6375H13243V5979.38V5583.75V5188.13V4792.5V4396.88V4001.25V3605.62V3210H14076C14076 3605.62 13872.7 3685.84 13870.4 4001.25C13868.2 4325.47 14076 4442.9 14076 4815.51C14076 5188.12 13872.7 5277.14 13870.4 5583.75C13868.1 5899.16 14076 5979.37 14076 6375Z" fill="black"/>
<path d="M1579 6256H748V6652V7048L748 7444V7840V8236V8632V9028L748 9424H1579C1579 9028 1376.16 8947.71 1373.94 8632C1371.66 8307.47 1579 8189.94 1579 7816.97C1579 7444 1376.22 7354.9 1373.94 7048C1371.59 6732.29 1579 6652 1579 6256Z" fill="#333333"/>
<path d="M4147 9420H4978V9024.5V8629V8233.5V7838V7442.5V7047V6651.5V6256H4147C4147 6651.5 4349.84 6731.69 4352.06 7047C4354.34 7371.12 4147 7488.51 4147 7861C4147 8233.5 4349.78 8322.48 4352.06 8629C4354.41 8944.31 4147 9024.5 4147 9420Z" fill="black"/>
<path d="M0 9424H831V9028V8632L831 8236V7840V7444V7048V6652L831 6256H0C0 6652 202.841 6732.29 205.06 7048C207.342 7372.53 4.47246e-06 7490.06 0 7863.03C-4.47246e-06 8236 202.779 8325.1 205.06 8632C207.407 8947.71 5.69112e-05 9028 0 9424Z" fill="#333333"/>
<path d="M5754 9420H4923V9024.5V8629V8233.5V7838V7442.5V7047V6651.5V6256H5754C5754 6651.5 5551.16 6731.69 5548.94 7047C5546.66 7371.12 5754 7488.51 5754 7861C5754 8233.5 5551.22 8322.48 5548.94 8629C5546.59 8944.31 5754 9024.5 5754 9420Z" fill="black"/>
<path d="M1579 9388H746V9784.12V10180.3L746 10576.4V10972.5V11368.6V11764.7V12160.9L746 12557H1579C1579 12160.9 1375.67 12080.6 1373.45 11764.7C1371.16 11440.1 1579 11322.5 1579 10949.5C1579 10576.4 1375.73 10487.3 1373.45 10180.3C1371.09 9864.44 1579 9784.13 1579 9388Z" fill="#333333"/>
<path d="M4147 12552H4980V12156.4V11760.7V11365.1V10969.5V10573.9V10178.3V9782.62V9387H4147C4147 9782.62 4350.33 9862.84 4352.55 10178.3C4354.84 10502.5 4147 10619.9 4147 10992.5C4147 11365.1 4350.27 11454.1 4352.55 11760.7C4354.91 12076.2 4147 12156.4 4147 12552Z" fill="black"/>
<path d="M0 12556H833V12159.9V11763.8L833 11367.6V10971.5V10575.4V10179.3V9783.12L833 9387H0C0 9783.13 203.329 9863.44 205.554 10179.3C207.841 10503.9 4.48322e-06 10621.5 0 10994.5C-4.48322e-06 11367.6 203.267 11456.7 205.554 11763.8C207.906 12079.6 5.70482e-05 12159.9 0 12556Z" fill="#333333"/>
<path d="M5754 12552H4921V12156.4V11760.7V11365.1V10969.5V10573.9V10178.3V9782.62V9387H5754C5754 9782.62 5550.67 9862.84 5548.45 10178.3C5546.16 10502.5 5754 10619.9 5754 10992.5C5754 11365.1 5550.73 11454.1 5548.45 11760.7C5546.09 12076.2 5754 12156.4 5754 12552Z" fill="black"/>
<path d="M9901 6273H9070V6669V7065V7461V7857V8253V8649V9045V9441H9901C9901 9045 9698.16 8964.71 9695.94 8649C9693.66 8324.47 9901 8206.94 9901 7833.97C9901 7461 9698.22 7371.9 9695.94 7065C9693.59 6749.29 9901 6669 9901 6273Z" fill="#333333"/>
<path d="M12469 9437H13300V9041.5V8646V8250.5V7855V7459.5V7064V6668.5V6273H12469C12469 6668.5 12671.8 6748.69 12674.1 7064C12676.3 7388.12 12469 7505.51 12469 7878C12469 8250.5 12671.8 8339.48 12674.1 8646C12676.4 8961.31 12469 9041.5 12469 9437Z" fill="black"/>
<path d="M8322 9441H9153V9045V8649V8253V7857V7461V7065V6669V6273H8322C8322 6669 8524.84 6749.29 8527.06 7065C8529.34 7389.53 8322 7507.06 8322 7880.03C8322 8253 8524.78 8342.1 8527.06 8649C8529.41 8964.71 8322 9045 8322 9441Z" fill="#333333"/>
<path d="M14076 9437H13245V9041.5V8646V8250.5V7855V7459.5V7064V6668.5V6273H14076C14076 6668.5 13873.2 6748.69 13870.9 7064C13868.7 7388.12 14076 7505.51 14076 7878C14076 8250.5 13873.2 8339.48 13870.9 8646C13868.6 8961.31 14076 9041.5 14076 9437Z" fill="black"/>
<path d="M9901 9405H9068V9801.12V10197.3V10593.4V10989.5V11385.6V11781.7V12177.9V12574H9901C9901 12177.9 9697.67 12097.6 9695.45 11781.7C9693.16 11457.1 9901 11339.5 9901 10966.5C9901 10593.4 9697.73 10504.3 9695.45 10197.3C9693.09 9881.44 9901 9801.13 9901 9405Z" fill="#333333"/>
<path d="M12469 12569H13302V12173.4V11777.7V11382.1V10986.5V10590.9V10195.3V9799.62V9404H12469C12469 9799.62 12672.3 9879.84 12674.6 10195.3C12676.8 10519.5 12469 10636.9 12469 11009.5C12469 11382.1 12672.3 11471.1 12674.6 11777.7C12676.9 12093.2 12469 12173.4 12469 12569Z" fill="black"/>
<path d="M8322 12573H9155V12176.9V11780.8V11384.6V10988.5V10592.4V10196.3V9800.12V9404H8322C8322 9800.13 8525.33 9880.44 8527.55 10196.3C8529.84 10520.9 8322 10638.5 8322 11011.5C8322 11384.6 8525.27 11473.7 8527.55 11780.8C8529.91 12096.6 8322 12176.9 8322 12573Z" fill="#333333"/>
<path d="M14076 12569H13243V12173.4V11777.7V11382.1V10986.5V10590.9V10195.3V9799.62V9404H14076C14076 9799.62 13872.7 9879.84 13870.4 10195.3C13868.2 10519.5 14076 10636.9 14076 11009.5C14076 11382.1 13872.7 11471.1 13870.4 11777.7C13868.1 12093.2 14076 12173.4 14076 12569Z" fill="black"/>
<path d="M18999 0L18168 0V396V792V1188V1584V1980V2376V2772V3168H18999C18999 2772 18796.2 2691.71 18793.9 2376C18791.7 2051.47 18999 1933.94 18999 1560.97C18999 1188 18796.2 1098.9 18793.9 792C18791.6 476.29 18999 396 18999 0Z" fill="#333333"/>
<path d="M21567 3164H22398V2768.5V2373V1977.5V1582V1186.5V791V395.5V0H21567C21567 395.5 21769.8 475.688 21772.1 791C21774.3 1115.12 21567 1232.51 21567 1605C21567 1977.5 21769.8 2066.48 21772.1 2373C21774.4 2688.31 21567 2768.5 21567 3164Z" fill="black"/>
<path d="M17420 3168H18251V2772V2376V1980V1584V1188V792V396V0H17420C17420 396 17622.8 476.29 17625.1 792C17627.3 1116.53 17420 1234.06 17420 1607.03C17420 1980 17622.8 2069.1 17625.1 2376C17627.4 2691.71 17420 2772 17420 3168Z" fill="#333333"/>
<path d="M23174 3164H22343V2768.5V2373V1977.5V1582V1186.5V791V395.5V0H23174C23174 395.5 22971.2 475.688 22968.9 791C22966.7 1115.12 23174 1232.51 23174 1605C23174 1977.5 22971.2 2066.48 22968.9 2373C22966.6 2688.31 23174 2768.5 23174 3164Z" fill="black"/>
<path d="M18999 3132H18166V3528.12V3924.25V4320.37V4716.5V5112.62V5508.75V5904.88V6301H18999C18999 5904.88 18795.7 5824.56 18793.4 5508.75C18791.2 5184.12 18999 5066.55 18999 4693.46C18999 4320.38 18795.7 4231.25 18793.4 3924.25C18791.1 3608.44 18999 3528.13 18999 3132Z" fill="#333333"/>
<path d="M21567 6296H22400V5900.38V5504.75V5109.13V4713.5V4317.88V3922.25V3526.62V3131H21567C21567 3526.62 21770.3 3606.84 21772.6 3922.25C21774.8 4246.47 21567 4363.9 21567 4736.51C21567 5109.12 21770.3 5198.14 21772.6 5504.75C21774.9 5820.16 21567 5900.37 21567 6296Z" fill="black"/>
<path d="M17420 6300H18253V5903.88V5507.75V5111.63V4715.5V4319.38V3923.25V3527.12V3131H17420C17420 3527.13 17623.3 3607.44 17625.6 3923.25C17627.8 4247.88 17420 4365.45 17420 4738.54C17420 5111.62 17623.3 5200.75 17625.6 5507.75C17627.9 5823.56 17420 5903.87 17420 6300Z" fill="#333333"/>
<path d="M23174 6296H22341V5900.38V5504.75V5109.13V4713.5V4317.88V3922.25V3526.62V3131H23174C23174 3526.62 22970.7 3606.84 22968.4 3922.25C22966.2 4246.47 23174 4363.9 23174 4736.51C23174 5109.12 22970.7 5198.14 22968.4 5504.75C22966.1 5820.16 23174 5900.37 23174 6296Z" fill="black"/>
<path d="M27321 17L26490 17V413V809V1205V1601V1997V2393V2789V3185H27321C27321 2789 27118.2 2708.71 27115.9 2393C27113.7 2068.47 27321 1950.94 27321 1577.97C27321 1205 27118.2 1115.9 27115.9 809C27113.6 493.29 27321 413 27321 17Z" fill="#333333"/>
<path d="M29889 3181H30720V2785.5V2390V1994.5V1599V1203.5V808V412.5V17H29889C29889 412.5 30091.8 492.688 30094.1 808C30096.3 1132.12 29889 1249.51 29889 1622C29889 1994.5 30091.8 2083.48 30094.1 2390C30096.4 2705.31 29889 2785.5 29889 3181Z" fill="black"/>
<path d="M25742 3185H26573V2789V2393V1997V1601V1205V809V413V17H25742C25742 413 25944.8 493.29 25947.1 809C25949.3 1133.53 25742 1251.06 25742 1624.03C25742 1997 25944.8 2086.1 25947.1 2393C25949.4 2708.71 25742 2789 25742 3185Z" fill="#333333"/>
<path d="M31496 3181H30665V2785.5V2390V1994.5V1599V1203.5V808V412.5V17H31496C31496 412.5 31293.2 492.688 31290.9 808C31288.7 1132.12 31496 1249.51 31496 1622C31496 1994.5 31293.2 2083.48 31290.9 2390C31288.6 2705.31 31496 2785.5 31496 3181Z" fill="black"/>
<path d="M27321 3149H26488V3545.12V3941.25V4337.37V4733.5V5129.62V5525.75V5921.88V6318H27321C27321 5921.88 27117.7 5841.56 27115.4 5525.75C27113.2 5201.12 27321 5083.55 27321 4710.46C27321 4337.38 27117.7 4248.25 27115.4 3941.25C27113.1 3625.44 27321 3545.13 27321 3149Z" fill="#333333"/>
<path d="M29889 6313H30722V5917.38V5521.75V5126.13V4730.5V4334.88V3939.25V3543.62V3148H29889C29889 3543.62 30092.3 3623.84 30094.6 3939.25C30096.8 4263.47 29889 4380.9 29889 4753.51C29889 5126.12 30092.3 5215.14 30094.6 5521.75C30096.9 5837.16 29889 5917.37 29889 6313Z" fill="black"/>
<path d="M25742 6317H26575V5920.88V5524.75V5128.63V4732.5V4336.38V3940.25V3544.12V3148H25742C25742 3544.13 25945.3 3624.44 25947.6 3940.25C25949.8 4264.88 25742 4382.45 25742 4755.54C25742 5128.62 25945.3 5217.75 25947.6 5524.75C25949.9 5840.56 25742 5920.87 25742 6317Z" fill="#333333"/>
<path d="M31496 6313H30663V5917.38V5521.75V5126.13V4730.5V4334.88V3939.25V3543.62V3148H31496C31496 3543.62 31292.7 3623.84 31290.4 3939.25C31288.2 4263.47 31496 4380.9 31496 4753.51C31496 5126.12 31292.7 5215.14 31290.4 5521.75C31288.1 5837.16 31496 5917.37 31496 6313Z" fill="black"/>
<path d="M18999 6194H18168V6590V6986V7382V7778V8174V8570V8966V9362H18999C18999 8966 18796.2 8885.71 18793.9 8570C18791.7 8245.47 18999 8127.94 18999 7754.97C18999 7382 18796.2 7292.9 18793.9 6986C18791.6 6670.29 18999 6590 18999 6194Z" fill="#333333"/>
<path d="M21567 9358H22398V8962.5V8567V8171.5V7776V7380.5V6985V6589.5V6194H21567C21567 6589.5 21769.8 6669.69 21772.1 6985C21774.3 7309.12 21567 7426.51 21567 7799C21567 8171.5 21769.8 8260.48 21772.1 8567C21774.4 8882.31 21567 8962.5 21567 9358Z" fill="black"/>
<path d="M17420 9362H18251V8966V8570V8174V7778V7382V6986V6590V6194H17420C17420 6590 17622.8 6670.29 17625.1 6986C17627.3 7310.53 17420 7428.06 17420 7801.03C17420 8174 17622.8 8263.1 17625.1 8570C17627.4 8885.71 17420 8966 17420 9362Z" fill="#333333"/>
<path d="M23174 9358H22343V8962.5V8567V8171.5V7776V7380.5V6985V6589.5V6194H23174C23174 6589.5 22971.2 6669.69 22968.9 6985C22966.7 7309.12 23174 7426.51 23174 7799C23174 8171.5 22971.2 8260.48 22968.9 8567C22966.6 8882.31 23174 8962.5 23174 9358Z" fill="black"/>
<path d="M18999 9326H18166V9722.12V10118.3V10514.4V10910.5V11306.6V11702.7V12098.9V12495H18999C18999 12098.9 18795.7 12018.6 18793.4 11702.7C18791.2 11378.1 18999 11260.5 18999 10887.5C18999 10514.4 18795.7 10425.3 18793.4 10118.3C18791.1 9802.44 18999 9722.13 18999 9326Z" fill="#333333"/>
<path d="M21567 12490H22400V12094.4V11698.7V11303.1V10907.5V10511.9V10116.3V9720.62V9325H21567C21567 9720.62 21770.3 9800.84 21772.6 10116.3C21774.8 10440.5 21567 10557.9 21567 10930.5C21567 11303.1 21770.3 11392.1 21772.6 11698.7C21774.9 12014.2 21567 12094.4 21567 12490Z" fill="black"/>
<path d="M17420 12494H18253V12097.9V11701.8V11305.6V10909.5V10513.4V10117.3V9721.12V9325H17420C17420 9721.13 17623.3 9801.44 17625.6 10117.3C17627.8 10441.9 17420 10559.5 17420 10932.5C17420 11305.6 17623.3 11394.7 17625.6 11701.8C17627.9 12017.6 17420 12097.9 17420 12494Z" fill="#333333"/>
<path d="M23174 12490H22341V12094.4V11698.7V11303.1V10907.5V10511.9V10116.3V9720.62V9325H23174C23174 9720.62 22970.7 9800.84 22968.4 10116.3C22966.2 10440.5 23174 10557.9 23174 10930.5C23174 11303.1 22970.7 11392.1 22968.4 11698.7C22966.1 12014.2 23174 12094.4 23174 12490Z" fill="black"/>
<path d="M27321 6211H26490V6607V7003V7399V7795V8191V8587V8983V9379H27321C27321 8983 27118.2 8902.71 27115.9 8587C27113.7 8262.47 27321 8144.94 27321 7771.97C27321 7399 27118.2 7309.9 27115.9 7003C27113.6 6687.29 27321 6607 27321 6211Z" fill="#333333"/>
<path d="M29889 9375H30720V8979.5V8584V8188.5V7793V7397.5V7002V6606.5V6211H29889C29889 6606.5 30091.8 6686.69 30094.1 7002C30096.3 7326.12 29889 7443.51 29889 7816C29889 8188.5 30091.8 8277.48 30094.1 8584C30096.4 8899.31 29889 8979.5 29889 9375Z" fill="black"/>
<path d="M25742 9379H26573V8983V8587V8191V7795V7399V7003V6607V6211H25742C25742 6607 25944.8 6687.29 25947.1 7003C25949.3 7327.53 25742 7445.06 25742 7818.03C25742 8191 25944.8 8280.1 25947.1 8587C25949.4 8902.71 25742 8983 25742 9379Z" fill="#333333"/>
<path d="M31496 9375H30665V8979.5V8584V8188.5V7793V7397.5V7002V6606.5V6211H31496C31496 6606.5 31293.2 6686.69 31290.9 7002C31288.7 7326.12 31496 7443.51 31496 7816C31496 8188.5 31293.2 8277.48 31290.9 8584C31288.6 8899.31 31496 8979.5 31496 9375Z" fill="black"/>
<path d="M27321 9343H26488V9739.12V10135.3V10531.4V10927.5V11323.6V11719.7V12115.9V12512H27321C27321 12115.9 27117.7 12035.6 27115.4 11719.7C27113.2 11395.1 27321 11277.5 27321 10904.5C27321 10531.4 27117.7 10442.3 27115.4 10135.3C27113.1 9819.44 27321 9739.13 27321 9343Z" fill="#333333"/>
<path d="M29889 12507H30722V12111.4V11715.7V11320.1V10924.5V10528.9V10133.3V9737.62V9342H29889C29889 9737.62 30092.3 9817.84 30094.6 10133.3C30096.8 10457.5 29889 10574.9 29889 10947.5C29889 11320.1 30092.3 11409.1 30094.6 11715.7C30096.9 12031.2 29889 12111.4 29889 12507Z" fill="black"/>
<path d="M25742 12511H26575V12114.9V11718.8V11322.6V10926.5V10530.4V10134.3V9738.12V9342H25742C25742 9738.13 25945.3 9818.44 25947.6 10134.3C25949.8 10458.9 25742 10576.5 25742 10949.5C25742 11322.6 25945.3 11411.7 25947.6 11718.8C25949.9 12034.6 25742 12114.9 25742 12511Z" fill="#333333"/>
<path d="M31496 12507H30663V12111.4V11715.7V11320.1V10924.5V10528.9V10133.3V9737.62V9342H31496C31496 9737.62 31292.7 9817.84 31290.4 10133.3C31288.2 10457.5 31496 10574.9 31496 10947.5C31496 11320.1 31292.7 11409.1 31290.4 11715.7C31288.1 12031.2 31496 12111.4 31496 12507Z" fill="black"/>
<path d="M1579 12490H748V12886V13282L748 13678V14074V14470V14866V15262L748 15658H1579C1579 15262 1376.16 15181.7 1373.94 14866C1371.66 14541.5 1579 14423.9 1579 14051C1579 13678 1376.22 13588.9 1373.94 13282C1371.59 12966.3 1579 12886 1579 12490Z" fill="#333333"/>
<path d="M4147 15654H4978V15258.5V14863V14467.5V14072V13676.5V13281V12885.5V12490H4147C4147 12885.5 4349.84 12965.7 4352.06 13281C4354.34 13605.1 4147 13722.5 4147 14095C4147 14467.5 4349.78 14556.5 4352.06 14863C4354.41 15178.3 4147 15258.5 4147 15654Z" fill="black"/>
<path d="M0 15658H831V15262V14866L831 14470V14074V13678V13282V12886L831 12490H0C0 12886 202.841 12966.3 205.06 13282C207.342 13606.5 4.47246e-06 13724.1 0 14097C-4.47246e-06 14470 202.779 14559.1 205.06 14866C207.407 15181.7 5.69112e-05 15262 0 15658Z" fill="#333333"/>
<path d="M5754 15654H4923V15258.5V14863V14467.5V14072V13676.5V13281V12885.5V12490H5754C5754 12885.5 5551.16 12965.7 5548.94 13281C5546.66 13605.1 5754 13722.5 5754 14095C5754 14467.5 5551.22 14556.5 5548.94 14863C5546.59 15178.3 5754 15258.5 5754 15654Z" fill="black"/>
<path d="M1579 15622H746V16018.1V16414.3L746 16810.4V17206.5V17602.6V17998.7V18394.9L746 18791H1579C1579 18394.9 1375.67 18314.6 1373.45 17998.7C1371.16 17674.1 1579 17556.5 1579 17183.5C1579 16810.4 1375.73 16721.3 1373.45 16414.3C1371.09 16098.4 1579 16018.1 1579 15622Z" fill="#333333"/>
<path d="M4147 18786H4980V18390.4V17994.7V17599.1V17203.5V16807.9V16412.3V16016.6V15621H4147C4147 16016.6 4350.33 16096.8 4352.55 16412.3C4354.84 16736.5 4147 16853.9 4147 17226.5C4147 17599.1 4350.27 17688.1 4352.55 17994.7C4354.91 18310.2 4147 18390.4 4147 18786Z" fill="black"/>
<path d="M0 18790H833V18393.9V17997.8L833 17601.6V17205.5V16809.4V16413.3V16017.1L833 15621H0C0 16017.1 203.329 16097.4 205.554 16413.3C207.841 16737.9 4.48322e-06 16855.5 0 17228.5C-4.48322e-06 17601.6 203.267 17690.7 205.554 17997.8C207.906 18313.6 5.70482e-05 18393.9 0 18790Z" fill="#333333"/>
<path d="M5754 18786H4921V18390.4V17994.7V17599.1V17203.5V16807.9V16412.3V16016.6V15621H5754C5754 16016.6 5550.67 16096.8 5548.45 16412.3C5546.16 16736.5 5754 16853.9 5754 17226.5C5754 17599.1 5550.73 17688.1 5548.45 17994.7C5546.09 18310.2 5754 18390.4 5754 18786Z" fill="black"/>
<path d="M9901 12507H9070V12903V13299V13695V14091V14487V14883V15279V15675H9901C9901 15279 9698.16 15198.7 9695.94 14883C9693.66 14558.5 9901 14440.9 9901 14068C9901 13695 9698.22 13605.9 9695.94 13299C9693.59 12983.3 9901 12903 9901 12507Z" fill="#333333"/>
<path d="M12469 15671H13300V15275.5V14880V14484.5V14089V13693.5V13298V12902.5V12507H12469C12469 12902.5 12671.8 12982.7 12674.1 13298C12676.3 13622.1 12469 13739.5 12469 14112C12469 14484.5 12671.8 14573.5 12674.1 14880C12676.4 15195.3 12469 15275.5 12469 15671Z" fill="black"/>
<path d="M8322 15675H9153V15279V14883V14487V14091V13695V13299V12903V12507H8322C8322 12903 8524.84 12983.3 8527.06 13299C8529.34 13623.5 8322 13741.1 8322 14114C8322 14487 8524.78 14576.1 8527.06 14883C8529.41 15198.7 8322 15279 8322 15675Z" fill="#333333"/>
<path d="M14076 15671H13245V15275.5V14880V14484.5V14089V13693.5V13298V12902.5V12507H14076C14076 12902.5 13873.2 12982.7 13870.9 13298C13868.7 13622.1 14076 13739.5 14076 14112C14076 14484.5 13873.2 14573.5 13870.9 14880C13868.6 15195.3 14076 15275.5 14076 15671Z" fill="black"/>
<path d="M9901 15639H9068V16035.1V16431.3V16827.4V17223.5V17619.6V18015.7V18411.9V18808H9901C9901 18411.9 9697.67 18331.6 9695.45 18015.7C9693.16 17691.1 9901 17573.5 9901 17200.5C9901 16827.4 9697.73 16738.3 9695.45 16431.3C9693.09 16115.4 9901 16035.1 9901 15639Z" fill="#333333"/>
<path d="M12469 18803H13302V18407.4V18011.7V17616.1V17220.5V16824.9V16429.3V16033.6V15638H12469C12469 16033.6 12672.3 16113.8 12674.6 16429.3C12676.8 16753.5 12469 16870.9 12469 17243.5C12469 17616.1 12672.3 17705.1 12674.6 18011.7C12676.9 18327.2 12469 18407.4 12469 18803Z" fill="black"/>
<path d="M8322 18807H9155V18410.9V18014.8V17618.6V17222.5V16826.4V16430.3V16034.1V15638H8322C8322 16034.1 8525.33 16114.4 8527.55 16430.3C8529.84 16754.9 8322 16872.5 8322 17245.5C8322 17618.6 8525.27 17707.7 8527.55 18014.8C8529.91 18330.6 8322 18410.9 8322 18807Z" fill="#333333"/>
<path d="M14076 18803H13243V18407.4V18011.7V17616.1V17220.5V16824.9V16429.3V16033.6V15638H14076C14076 16033.6 13872.7 16113.8 13870.4 16429.3C13868.2 16753.5 14076 16870.9 14076 17243.5C14076 17616.1 13872.7 17705.1 13870.4 18011.7C13868.1 18327.2 14076 18407.4 14076 18803Z" fill="black"/>
<path d="M1579 18684H748V19080V19476L748 19872V20268V20664V21060V21456L748 21852H1579C1579 21456 1376.16 21375.7 1373.94 21060C1371.66 20735.5 1579 20617.9 1579 20245C1579 19872 1376.22 19782.9 1373.94 19476C1371.59 19160.3 1579 19080 1579 18684Z" fill="#333333"/>
<path d="M4147 21848H4978V21452.5V21057V20661.5V20266V19870.5V19475V19079.5V18684H4147C4147 19079.5 4349.84 19159.7 4352.06 19475C4354.34 19799.1 4147 19916.5 4147 20289C4147 20661.5 4349.78 20750.5 4352.06 21057C4354.41 21372.3 4147 21452.5 4147 21848Z" fill="black"/>
<path d="M0 21852H831V21456V21060L831 20664V20268V19872V19476V19080L831 18684H0C0 19080 202.841 19160.3 205.06 19476C207.342 19800.5 4.47246e-06 19918.1 0 20291C-4.47246e-06 20664 202.779 20753.1 205.06 21060C207.407 21375.7 5.69112e-05 21456 0 21852Z" fill="#333333"/>
<path d="M5754 21848H4923V21452.5V21057V20661.5V20266V19870.5V19475V19079.5V18684H5754C5754 19079.5 5551.16 19159.7 5548.94 19475C5546.66 19799.1 5754 19916.5 5754 20289C5754 20661.5 5551.22 20750.5 5548.94 21057C5546.59 21372.3 5754 21452.5 5754 21848Z" fill="black"/>
<path d="M1579 21816H746V22212.1V22608.3L746 23004.4V23400.5V23796.6V24192.7V24588.9L746 24985H1579C1579 24588.9 1375.67 24508.6 1373.45 24192.7C1371.16 23868.1 1579 23750.5 1579 23377.5C1579 23004.4 1375.73 22915.3 1373.45 22608.3C1371.09 22292.4 1579 22212.1 1579 21816Z" fill="#333333"/>
<path d="M4147 24980H4980V24584.4V24188.7V23793.1V23397.5V23001.9V22606.3V22210.6V21815H4147C4147 22210.6 4350.33 22290.8 4352.55 22606.3C4354.84 22930.5 4147 23047.9 4147 23420.5C4147 23793.1 4350.27 23882.1 4352.55 24188.7C4354.91 24504.2 4147 24584.4 4147 24980Z" fill="black"/>
<path d="M0 24984H833V24587.9V24191.8L833 23795.6V23399.5V23003.4V22607.3V22211.1L833 21815H0C0 22211.1 203.329 22291.4 205.554 22607.3C207.841 22931.9 4.48322e-06 23049.5 0 23422.5C-4.48322e-06 23795.6 203.267 23884.7 205.554 24191.8C207.906 24507.6 5.70482e-05 24587.9 0 24984Z" fill="#333333"/>
<path d="M5754 24980H4921V24584.4V24188.7V23793.1V23397.5V23001.9V22606.3V22210.6V21815H5754C5754 22210.6 5550.67 22290.8 5548.45 22606.3C5546.16 22930.5 5754 23047.9 5754 23420.5C5754 23793.1 5550.73 23882.1 5548.45 24188.7C5546.09 24504.2 5754 24584.4 5754 24980Z" fill="black"/>
<path d="M9901 18701H9070V19097V19493V19889V20285V20681V21077V21473V21869H9901C9901 21473 9698.16 21392.7 9695.94 21077C9693.66 20752.5 9901 20634.9 9901 20262C9901 19889 9698.22 19799.9 9695.94 19493C9693.59 19177.3 9901 19097 9901 18701Z" fill="#333333"/>
<path d="M12469 21865H13300V21469.5V21074V20678.5V20283V19887.5V19492V19096.5V18701H12469C12469 19096.5 12671.8 19176.7 12674.1 19492C12676.3 19816.1 12469 19933.5 12469 20306C12469 20678.5 12671.8 20767.5 12674.1 21074C12676.4 21389.3 12469 21469.5 12469 21865Z" fill="black"/>
<path d="M8322 21869H9153V21473V21077V20681V20285V19889V19493V19097V18701H8322C8322 19097 8524.84 19177.3 8527.06 19493C8529.34 19817.5 8322 19935.1 8322 20308C8322 20681 8524.78 20770.1 8527.06 21077C8529.41 21392.7 8322 21473 8322 21869Z" fill="#333333"/>
<path d="M14076 21865H13245V21469.5V21074V20678.5V20283V19887.5V19492V19096.5V18701H14076C14076 19096.5 13873.2 19176.7 13870.9 19492C13868.7 19816.1 14076 19933.5 14076 20306C14076 20678.5 13873.2 20767.5 13870.9 21074C13868.6 21389.3 14076 21469.5 14076 21865Z" fill="black"/>
<path d="M9901 21833H9068V22229.1V22625.3V23021.4V23417.5V23813.6V24209.7V24605.9V25002H9901C9901 24605.9 9697.67 24525.6 9695.45 24209.7C9693.16 23885.1 9901 23767.5 9901 23394.5C9901 23021.4 9697.73 22932.3 9695.45 22625.3C9693.09 22309.4 9901 22229.1 9901 21833Z" fill="#333333"/>
<path d="M12469 24997H13302V24601.4V24205.7V23810.1V23414.5V23018.9V22623.3V22227.6V21832H12469C12469 22227.6 12672.3 22307.8 12674.6 22623.3C12676.8 22947.5 12469 23064.9 12469 23437.5C12469 23810.1 12672.3 23899.1 12674.6 24205.7C12676.9 24521.2 12469 24601.4 12469 24997Z" fill="black"/>
<path d="M8322 25001H9155V24604.9V24208.8V23812.6V23416.5V23020.4V22624.3V22228.1V21832H8322C8322 22228.1 8525.33 22308.4 8527.55 22624.3C8529.84 22948.9 8322 23066.5 8322 23439.5C8322 23812.6 8525.27 23901.7 8527.55 24208.8C8529.91 24524.6 8322 24604.9 8322 25001Z" fill="#333333"/>
<path d="M14076 24997H13243V24601.4V24205.7V23810.1V23414.5V23018.9V22623.3V22227.6V21832H14076C14076 22227.6 13872.7 22307.8 13870.4 22623.3C13868.2 22947.5 14076 23064.9 14076 23437.5C14076 23810.1 13872.7 23899.1 13870.4 24205.7C13868.1 24521.2 14076 24601.4 14076 24997Z" fill="black"/>
<path d="M18999 12428H18168V12824V13220V13616V14012V14408V14804V15200V15596H18999C18999 15200 18796.2 15119.7 18793.9 14804C18791.7 14479.5 18999 14361.9 18999 13989C18999 13616 18796.2 13526.9 18793.9 13220C18791.6 12904.3 18999 12824 18999 12428Z" fill="#333333"/>
<path d="M21567 15592H22398V15196.5V14801V14405.5V14010V13614.5V13219V12823.5V12428H21567C21567 12823.5 21769.8 12903.7 21772.1 13219C21774.3 13543.1 21567 13660.5 21567 14033C21567 14405.5 21769.8 14494.5 21772.1 14801C21774.4 15116.3 21567 15196.5 21567 15592Z" fill="black"/>
<path d="M17420 15596H18251V15200V14804V14408V14012V13616V13220V12824V12428H17420C17420 12824 17622.8 12904.3 17625.1 13220C17627.3 13544.5 17420 13662.1 17420 14035C17420 14408 17622.8 14497.1 17625.1 14804C17627.4 15119.7 17420 15200 17420 15596Z" fill="#333333"/>
<path d="M23174 15592H22343V15196.5V14801V14405.5V14010V13614.5V13219V12823.5V12428H23174C23174 12823.5 22971.2 12903.7 22968.9 13219C22966.7 13543.1 23174 13660.5 23174 14033C23174 14405.5 22971.2 14494.5 22968.9 14801C22966.6 15116.3 23174 15196.5 23174 15592Z" fill="black"/>
<path d="M18999 15560H18166V15956.1V16352.3V16748.4V17144.5V17540.6V17936.7V18332.9V18729H18999C18999 18332.9 18795.7 18252.6 18793.4 17936.7C18791.2 17612.1 18999 17494.5 18999 17121.5C18999 16748.4 18795.7 16659.3 18793.4 16352.3C18791.1 16036.4 18999 15956.1 18999 15560Z" fill="#333333"/>
<path d="M21567 18724H22400V18328.4V17932.7V17537.1V17141.5V16745.9V16350.3V15954.6V15559H21567C21567 15954.6 21770.3 16034.8 21772.6 16350.3C21774.8 16674.5 21567 16791.9 21567 17164.5C21567 17537.1 21770.3 17626.1 21772.6 17932.7C21774.9 18248.2 21567 18328.4 21567 18724Z" fill="black"/>
<path d="M17420 18728H18253V18331.9V17935.8V17539.6V17143.5V16747.4V16351.3V15955.1V15559H17420C17420 15955.1 17623.3 16035.4 17625.6 16351.3C17627.8 16675.9 17420 16793.5 17420 17166.5C17420 17539.6 17623.3 17628.7 17625.6 17935.8C17627.9 18251.6 17420 18331.9 17420 18728Z" fill="#333333"/>
<path d="M23174 18724H22341V18328.4V17932.7V17537.1V17141.5V16745.9V16350.3V15954.6V15559H23174C23174 15954.6 22970.7 16034.8 22968.4 16350.3C22966.2 16674.5 23174 16791.9 23174 17164.5C23174 17537.1 22970.7 17626.1 22968.4 17932.7C22966.1 18248.2 23174 18328.4 23174 18724Z" fill="black"/>
<path d="M27321 12445H26490V12841V13237V13633V14029V14425V14821V15217V15613H27321C27321 15217 27118.2 15136.7 27115.9 14821C27113.7 14496.5 27321 14378.9 27321 14006C27321 13633 27118.2 13543.9 27115.9 13237C27113.6 12921.3 27321 12841 27321 12445Z" fill="#333333"/>
<path d="M29889 15609H30720V15213.5V14818V14422.5V14027V13631.5V13236V12840.5V12445H29889C29889 12840.5 30091.8 12920.7 30094.1 13236C30096.3 13560.1 29889 13677.5 29889 14050C29889 14422.5 30091.8 14511.5 30094.1 14818C30096.4 15133.3 29889 15213.5 29889 15609Z" fill="black"/>
<path d="M25742 15613H26573V15217V14821V14425V14029V13633V13237V12841V12445H25742C25742 12841 25944.8 12921.3 25947.1 13237C25949.3 13561.5 25742 13679.1 25742 14052C25742 14425 25944.8 14514.1 25947.1 14821C25949.4 15136.7 25742 15217 25742 15613Z" fill="#333333"/>
<path d="M31496 15609H30665V15213.5V14818V14422.5V14027V13631.5V13236V12840.5V12445H31496C31496 12840.5 31293.2 12920.7 31290.9 13236C31288.7 13560.1 31496 13677.5 31496 14050C31496 14422.5 31293.2 14511.5 31290.9 14818C31288.6 15133.3 31496 15213.5 31496 15609Z" fill="black"/>
<path d="M27321 15577H26488V15973.1V16369.3V16765.4V17161.5V17557.6V17953.7V18349.9V18746H27321C27321 18349.9 27117.7 18269.6 27115.4 17953.7C27113.2 17629.1 27321 17511.5 27321 17138.5C27321 16765.4 27117.7 16676.3 27115.4 16369.3C27113.1 16053.4 27321 15973.1 27321 15577Z" fill="#333333"/>
<path d="M29889 18741H30722V18345.4V17949.7V17554.1V17158.5V16762.9V16367.3V15971.6V15576H29889C29889 15971.6 30092.3 16051.8 30094.6 16367.3C30096.8 16691.5 29889 16808.9 29889 17181.5C29889 17554.1 30092.3 17643.1 30094.6 17949.7C30096.9 18265.2 29889 18345.4 29889 18741Z" fill="black"/>
<path d="M25742 18745H26575V18348.9V17952.8V17556.6V17160.5V16764.4V16368.3V15972.1V15576H25742C25742 15972.1 25945.3 16052.4 25947.6 16368.3C25949.8 16692.9 25742 16810.5 25742 17183.5C25742 17556.6 25945.3 17645.7 25947.6 17952.8C25949.9 18268.6 25742 18348.9 25742 18745Z" fill="#333333"/>
<path d="M31496 18741H30663V18345.4V17949.7V17554.1V17158.5V16762.9V16367.3V15971.6V15576H31496C31496 15971.6 31292.7 16051.8 31290.4 16367.3C31288.2 16691.5 31496 16808.9 31496 17181.5C31496 17554.1 31292.7 17643.1 31290.4 17949.7C31288.1 18265.2 31496 18345.4 31496 18741Z" fill="black"/>
<path d="M18999 18622H18168V19018V19414V19810V20206V20602V20998V21394V21790H18999C18999 21394 18796.2 21313.7 18793.9 20998C18791.7 20673.5 18999 20555.9 18999 20183C18999 19810 18796.2 19720.9 18793.9 19414C18791.6 19098.3 18999 19018 18999 18622Z" fill="#333333"/>
<path d="M21567 21786H22398V21390.5V20995V20599.5V20204V19808.5V19413V19017.5V18622H21567C21567 19017.5 21769.8 19097.7 21772.1 19413C21774.3 19737.1 21567 19854.5 21567 20227C21567 20599.5 21769.8 20688.5 21772.1 20995C21774.4 21310.3 21567 21390.5 21567 21786Z" fill="black"/>
<path d="M17420 21790H18251V21394V20998V20602V20206V19810V19414V19018V18622H17420C17420 19018 17622.8 19098.3 17625.1 19414C17627.3 19738.5 17420 19856.1 17420 20229C17420 20602 17622.8 20691.1 17625.1 20998C17627.4 21313.7 17420 21394 17420 21790Z" fill="#333333"/>
<path d="M23174 21786H22343V21390.5V20995V20599.5V20204V19808.5V19413V19017.5V18622H23174C23174 19017.5 22971.2 19097.7 22968.9 19413C22966.7 19737.1 23174 19854.5 23174 20227C23174 20599.5 22971.2 20688.5 22968.9 20995C22966.6 21310.3 23174 21390.5 23174 21786Z" fill="black"/>
<path d="M18999 21754H18166V22150.1V22546.3V22942.4V23338.5V23734.6V24130.7V24526.9V24923H18999C18999 24526.9 18795.7 24446.6 18793.4 24130.7C18791.2 23806.1 18999 23688.5 18999 23315.5C18999 22942.4 18795.7 22853.3 18793.4 22546.3C18791.1 22230.4 18999 22150.1 18999 21754Z" fill="#333333"/>
<path d="M21567 24918H22400V24522.4V24126.7V23731.1V23335.5V22939.9V22544.3V22148.6V21753H21567C21567 22148.6 21770.3 22228.8 21772.6 22544.3C21774.8 22868.5 21567 22985.9 21567 23358.5C21567 23731.1 21770.3 23820.1 21772.6 24126.7C21774.9 24442.2 21567 24522.4 21567 24918Z" fill="black"/>
<path d="M17420 24922H18253V24525.9V24129.8V23733.6V23337.5V22941.4V22545.3V22149.1V21753H17420C17420 22149.1 17623.3 22229.4 17625.6 22545.3C17627.8 22869.9 17420 22987.5 17420 23360.5C17420 23733.6 17623.3 23822.7 17625.6 24129.8C17627.9 24445.6 17420 24525.9 17420 24922Z" fill="#333333"/>
<path d="M23174 24918H22341V24522.4V24126.7V23731.1V23335.5V22939.9V22544.3V22148.6V21753H23174C23174 22148.6 22970.7 22228.8 22968.4 22544.3C22966.2 22868.5 23174 22985.9 23174 23358.5C23174 23731.1 22970.7 23820.1 22968.4 24126.7C22966.1 24442.2 23174 24522.4 23174 24918Z" fill="black"/>
<path d="M27321 18639H26490V19035V19431V19827V20223V20619V21015V21411V21807H27321C27321 21411 27118.2 21330.7 27115.9 21015C27113.7 20690.5 27321 20572.9 27321 20200C27321 19827 27118.2 19737.9 27115.9 19431C27113.6 19115.3 27321 19035 27321 18639Z" fill="#333333"/>
<path d="M29889 21803H30720V21407.5V21012V20616.5V20221V19825.5V19430V19034.5V18639H29889C29889 19034.5 30091.8 19114.7 30094.1 19430C30096.3 19754.1 29889 19871.5 29889 20244C29889 20616.5 30091.8 20705.5 30094.1 21012C30096.4 21327.3 29889 21407.5 29889 21803Z" fill="black"/>
<path d="M25742 21807H26573V21411V21015V20619V20223V19827V19431V19035V18639H25742C25742 19035 25944.8 19115.3 25947.1 19431C25949.3 19755.5 25742 19873.1 25742 20246C25742 20619 25944.8 20708.1 25947.1 21015C25949.4 21330.7 25742 21411 25742 21807Z" fill="#333333"/>
<path d="M31496 21803H30665V21407.5V21012V20616.5V20221V19825.5V19430V19034.5V18639H31496C31496 19034.5 31293.2 19114.7 31290.9 19430C31288.7 19754.1 31496 19871.5 31496 20244C31496 20616.5 31293.2 20705.5 31290.9 21012C31288.6 21327.3 31496 21407.5 31496 21803Z" fill="black"/>
<path d="M27321 21771H26488V22167.1V22563.3V22959.4V23355.5V23751.6V24147.7V24543.9V24940H27321C27321 24543.9 27117.7 24463.6 27115.4 24147.7C27113.2 23823.1 27321 23705.5 27321 23332.5C27321 22959.4 27117.7 22870.3 27115.4 22563.3C27113.1 22247.4 27321 22167.1 27321 21771Z" fill="#333333"/>
<path d="M29889 24935H30722V24539.4V24143.7V23748.1V23352.5V22956.9V22561.3V22165.6V21770H29889C29889 22165.6 30092.3 22245.8 30094.6 22561.3C30096.8 22885.5 29889 23002.9 29889 23375.5C29889 23748.1 30092.3 23837.1 30094.6 24143.7C30096.9 24459.2 29889 24539.4 29889 24935Z" fill="black"/>
<path d="M25742 24939H26575V24542.9V24146.8V23750.6V23354.5V22958.4V22562.3V22166.1V21770H25742C25742 22166.1 25945.3 22246.4 25947.6 22562.3C25949.8 22886.9 25742 23004.5 25742 23377.5C25742 23750.6 25945.3 23839.7 25947.6 24146.8C25949.9 24462.6 25742 24542.9 25742 24939Z" fill="#333333"/>
<path d="M31496 24935H30663V24539.4V24143.7V23748.1V23352.5V22956.9V22561.3V22165.6V21770H31496C31496 22165.6 31292.7 22245.8 31290.4 22561.3C31288.2 22885.5 31496 23002.9 31496 23375.5C31496 23748.1 31292.7 23837.1 31290.4 24143.7C31288.1 24459.2 31496 24539.4 31496 24935Z" fill="black"/>
</svg>
