<svg width="20040" height="12656" viewBox="0 0 20040 12656" fill="none" xmlns="http://www.w3.org/2000/svg">
<path d="M831 0L-6.10352e-05 0V395.5V791L-6.10352e-05 1186.5V1582V1977.5V2373V2768.5L-6.10352e-05 3164H831C831 2768.5 628.159 2688.31 625.94 2373C623.658 2048.88 831 1931.49 831 1559C831 1186.5 628.221 1097.52 625.94 791C623.593 475.689 831 395.5 831 0Z" fill="#333333"/>
<path d="M4179 3164H5010V2768.5V2373V1977.5V1582V1186.5V791V395.5V0H4179C4179 395.5 4381.84 475.688 4384.06 791C4386.34 1115.12 4179 1232.51 4179 1605C4179 1977.5 4381.78 2066.48 4384.06 2373C4386.41 2688.31 4179 2768.5 4179 3164Z" fill="black"/>
<path d="M831 3164H-6.10352e-05V3559.5V3955L-6.10352e-05 4350.5V4746V5141.5V5537V5932.5L-6.10352e-05 6328H831C831 5932.5 628.159 5852.31 625.94 5537C623.658 5212.88 831 5095.49 831 4723C831 4350.5 628.221 4261.52 625.94 3955C623.593 3639.69 831 3559.5 831 3164Z" fill="#333333"/>
<path d="M4179 6328H5010V5932.5V5537V5141.5V4746V4350.5V3955V3559.5V3164H4179C4179 3559.5 4381.84 3639.69 4384.06 3955C4386.34 4279.12 4179 4396.51 4179 4769C4179 5141.5 4381.78 5230.48 4384.06 5537C4386.41 5852.31 4179 5932.5 4179 6328Z" fill="black"/>
<path d="M831 6328H-6.10352e-05V6723.5V7119L-6.10352e-05 7514.5V7910V8305.5V8701V9096.5L-6.10352e-05 9492H831C831 9096.5 628.159 9016.31 625.94 8701C623.658 8376.88 831 8259.49 831 7887C831 7514.5 628.221 7425.52 625.94 7119C623.593 6803.69 831 6723.5 831 6328Z" fill="#333333"/>
<path d="M4179 9492H5010V9096.5V8701V8305.5V7910V7514.5V7119V6723.5V6328H4179C4179 6723.5 4381.84 6803.69 4384.06 7119C4386.34 7443.12 4179 7560.51 4179 7933C4179 8305.5 4381.78 8394.48 4384.06 8701C4386.41 9016.31 4179 9096.5 4179 9492Z" fill="black"/>
<path d="M831 9492H-6.10352e-05V9887.5V10283L-6.10352e-05 10678.5V11074V11469.5V11865V12260.5L-6.10352e-05 12656H831C831 12260.5 628.159 12180.3 625.94 11865C623.658 11540.9 831 11423.5 831 11051C831 10678.5 628.221 10589.5 625.94 10283C623.593 9967.69 831 9887.5 831 9492Z" fill="#333333"/>
<path d="M4179 12656H5010V12260.5V11865V11469.5V11074V10678.5V10283V9887.5V9492H4179C4179 9887.5 4381.84 9967.69 4384.06 10283C4386.34 10607.1 4179 10724.5 4179 11097C4179 11469.5 4381.78 11558.5 4384.06 11865C4386.41 12180.3 4179 12260.5 4179 12656Z" fill="black"/>
<path d="M19209 0L20040 0V395.5V791V1186.5V1582V1977.5V2373V2768.5V3164H19209C19209 2768.5 19411.8 2688.31 19414.1 2373C19416.3 2048.88 19209 1931.49 19209 1559C19209 1186.5 19411.8 1097.52 19414.1 791C19416.4 475.689 19209 395.5 19209 0Z" fill="#333333"/>
<path d="M15861 3164H15030V2768.5V2373V1977.5V1582V1186.5V791V395.5V0H15861C15861 395.5 15658.2 475.688 15655.9 791C15653.7 1115.12 15861 1232.51 15861 1605C15861 1977.5 15658.2 2066.48 15655.9 2373C15653.6 2688.31 15861 2768.5 15861 3164Z" fill="black"/>
<path d="M19209 3164H20040V3559.5V3955V4350.5V4746V5141.5V5537V5932.5V6328H19209C19209 5932.5 19411.8 5852.31 19414.1 5537C19416.3 5212.88 19209 5095.49 19209 4723C19209 4350.5 19411.8 4261.52 19414.1 3955C19416.4 3639.69 19209 3559.5 19209 3164Z" fill="#333333"/>
<path d="M15861 6328H15030V5932.5V5537V5141.5V4746V4350.5V3955V3559.5V3164H15861C15861 3559.5 15658.2 3639.69 15655.9 3955C15653.7 4279.12 15861 4396.51 15861 4769C15861 5141.5 15658.2 5230.48 15655.9 5537C15653.6 5852.31 15861 5932.5 15861 6328Z" fill="black"/>
<path d="M19209 6328H20040V6723.5V7119V7514.5V7910V8305.5V8701V9096.5V9492H19209C19209 9096.5 19411.8 9016.31 19414.1 8701C19416.3 8376.88 19209 8259.49 19209 7887C19209 7514.5 19411.8 7425.52 19414.1 7119C19416.4 6803.69 19209 6723.5 19209 6328Z" fill="#333333"/>
<path d="M15861 9492H15030V9096.5V8701V8305.5V7910V7514.5V7119V6723.5V6328H15861C15861 6723.5 15658.2 6803.69 15655.9 7119C15653.7 7443.12 15861 7560.51 15861 7933C15861 8305.5 15658.2 8394.48 15655.9 8701C15653.6 9016.31 15861 9096.5 15861 9492Z" fill="black"/>
<path d="M19209 9492H20040V9887.5V10283V10678.5V11074V11469.5V11865V12260.5V12656H19209C19209 12260.5 19411.8 12180.3 19414.1 11865C19416.3 11540.9 19209 11423.5 19209 11051C19209 10678.5 19411.8 10589.5 19414.1 10283C19416.4 9967.69 19209 9887.5 19209 9492Z" fill="#333333"/>
<path d="M15861 12656H15030V12260.5V11865V11469.5V11074V10678.5V10283V9887.5V9492H15861C15861 9887.5 15658.2 9967.69 15655.9 10283C15653.7 10607.1 15861 10724.5 15861 11097C15861 11469.5 15658.2 11558.5 15655.9 11865C15653.6 12180.3 15861 12260.5 15861 12656Z" fill="black"/>
<path d="M10851 0L10020 0V395.5V791V1186.5V1582V1977.5V2373V2768.5V3164H10851C10851 2768.5 10648.2 2688.31 10645.9 2373C10643.7 2048.88 10851 1931.49 10851 1559C10851 1186.5 10648.2 1097.52 10645.9 791C10643.6 475.689 10851 395.5 10851 0Z" fill="#333333"/>
<path d="M14199 3164H15030V2768.5V2373V1977.5V1582V1186.5V791V395.5V0H14199C14199 395.5 14401.8 475.688 14404.1 791C14406.3 1115.12 14199 1232.51 14199 1605C14199 1977.5 14401.8 2066.48 14404.1 2373C14406.4 2688.31 14199 2768.5 14199 3164Z" fill="black"/>
<path d="M10851 3164H10020V3559.5V3955V4350.5V4746V5141.5V5537V5932.5V6328H10851C10851 5932.5 10648.2 5852.31 10645.9 5537C10643.7 5212.88 10851 5095.49 10851 4723C10851 4350.5 10648.2 4261.52 10645.9 3955C10643.6 3639.69 10851 3559.5 10851 3164Z" fill="#333333"/>
<path d="M14199 6328H15030V5932.5V5537V5141.5V4746V4350.5V3955V3559.5V3164H14199C14199 3559.5 14401.8 3639.69 14404.1 3955C14406.3 4279.12 14199 4396.51 14199 4769C14199 5141.5 14401.8 5230.48 14404.1 5537C14406.4 5852.31 14199 5932.5 14199 6328Z" fill="black"/>
<path d="M10851 6328H10020V6723.5V7119V7514.5V7910V8305.5V8701V9096.5V9492H10851C10851 9096.5 10648.2 9016.31 10645.9 8701C10643.7 8376.88 10851 8259.49 10851 7887C10851 7514.5 10648.2 7425.52 10645.9 7119C10643.6 6803.69 10851 6723.5 10851 6328Z" fill="#333333"/>
<path d="M14199 9492H15030V9096.5V8701V8305.5V7910V7514.5V7119V6723.5V6328H14199C14199 6723.5 14401.8 6803.69 14404.1 7119C14406.3 7443.12 14199 7560.51 14199 7933C14199 8305.5 14401.8 8394.48 14404.1 8701C14406.4 9016.31 14199 9096.5 14199 9492Z" fill="black"/>
<path d="M10851 9492H10020V9887.5V10283V10678.5V11074V11469.5V11865V12260.5V12656H10851C10851 12260.5 10648.2 12180.3 10645.9 11865C10643.7 11540.9 10851 11423.5 10851 11051C10851 10678.5 10648.2 10589.5 10645.9 10283C10643.6 9967.69 10851 9887.5 10851 9492Z" fill="#333333"/>
<path d="M14199 12656H15030V12260.5V11865V11469.5V11074V10678.5V10283V9887.5V9492H14199C14199 9887.5 14401.8 9967.69 14404.1 10283C14406.3 10607.1 14199 10724.5 14199 11097C14199 11469.5 14401.8 11558.5 14404.1 11865C14406.4 12180.3 14199 12260.5 14199 12656Z" fill="black"/>
<path d="M9189 0L10020 0V395.5V791V1186.5V1582V1977.5V2373V2768.5V3164H9189C9189 2768.5 9391.84 2688.31 9394.06 2373C9396.34 2048.88 9189 1931.49 9189 1559C9189 1186.5 9391.78 1097.52 9394.06 791C9396.41 475.689 9189 395.5 9189 0Z" fill="#333333"/>
<path d="M5841 3164H5010V2768.5V2373V1977.5V1582V1186.5V791V395.5V0H5841C5841 395.5 5638.16 475.688 5635.94 791C5633.66 1115.12 5841 1232.51 5841 1605C5841 1977.5 5638.22 2066.48 5635.94 2373C5633.59 2688.31 5841 2768.5 5841 3164Z" fill="black"/>
<path d="M9189 3164H10020V3559.5V3955V4350.5V4746V5141.5V5537V5932.5V6328H9189C9189 5932.5 9391.84 5852.31 9394.06 5537C9396.34 5212.88 9189 5095.49 9189 4723C9189 4350.5 9391.78 4261.52 9394.06 3955C9396.41 3639.69 9189 3559.5 9189 3164Z" fill="#333333"/>
<path d="M5841 6328H5010V5932.5V5537V5141.5V4746V4350.5V3955V3559.5V3164H5841C5841 3559.5 5638.16 3639.69 5635.94 3955C5633.66 4279.12 5841 4396.51 5841 4769C5841 5141.5 5638.22 5230.48 5635.94 5537C5633.59 5852.31 5841 5932.5 5841 6328Z" fill="black"/>
<path d="M9189 6328H10020V6723.5V7119V7514.5V7910V8305.5V8701V9096.5V9492H9189C9189 9096.5 9391.84 9016.31 9394.06 8701C9396.34 8376.88 9189 8259.49 9189 7887C9189 7514.5 9391.78 7425.52 9394.06 7119C9396.41 6803.69 9189 6723.5 9189 6328Z" fill="#333333"/>
<path d="M5841 9492H5010V9096.5V8701V8305.5V7910V7514.5V7119V6723.5V6328H5841C5841 6723.5 5638.16 6803.69 5635.94 7119C5633.66 7443.12 5841 7560.51 5841 7933C5841 8305.5 5638.22 8394.48 5635.94 8701C5633.59 9016.31 5841 9096.5 5841 9492Z" fill="black"/>
<path d="M9189 9492H10020V9887.5V10283V10678.5V11074V11469.5V11865V12260.5V12656H9189C9189 12260.5 9391.84 12180.3 9394.06 11865C9396.34 11540.9 9189 11423.5 9189 11051C9189 10678.5 9391.78 10589.5 9394.06 10283C9396.41 9967.69 9189 9887.5 9189 9492Z" fill="#333333"/>
<path d="M5841 12656H5010V12260.5V11865V11469.5V11074V10678.5V10283V9887.5V9492H5841C5841 9887.5 5638.16 9967.69 5635.94 10283C5633.66 10607.1 5841 10724.5 5841 11097C5841 11469.5 5638.22 11558.5 5635.94 11865C5633.59 12180.3 5841 12260.5 5841 12656Z" fill="black"/>
</svg>
