<svg width="22690" height="25328" viewBox="0 0 22690 25328" fill="none" xmlns="http://www.w3.org/2000/svg">
<path d="M1662 4L831 4V400V796L831 1192V1588V1984V2380V2776L831 3172H1662C1662 2776 1459.16 2695.71 1456.94 2380C1454.66 2055.47 1662 1937.94 1662 1564.97C1662 1192 1459.22 1102.9 1456.94 796C1454.59 480.29 1662 400 1662 4Z" fill="#333333"/>
<path d="M3004 3168H3835V2772.5V2377V1981.5V1586V1190.5V795V399.5V4H3004C3004 399.5 3206.84 479.688 3209.06 795C3211.34 1119.12 3004 1236.51 3004 1609C3004 1981.5 3206.78 2070.48 3209.06 2377C3211.41 2692.31 3004 2772.5 3004 3168Z" fill="black"/>
<path d="M1662 3168H831V3564V3960L831 4356V4752V5148V5544V5940L831 6336H1662C1662 5940 1459.16 5859.71 1456.94 5544C1454.66 5219.47 1662 5101.94 1662 4728.97C1662 4356 1459.22 4266.9 1456.94 3960C1454.59 3644.29 1662 3564 1662 3168Z" fill="#333333"/>
<path d="M3004 6332H3835V5936.5V5541V5145.5V4750V4354.5V3959V3563.5V3168H3004C3004 3563.5 3206.84 3643.69 3209.06 3959C3211.34 4283.12 3004 4400.51 3004 4773C3004 5145.5 3206.78 5234.48 3209.06 5541C3211.41 5856.31 3004 5936.5 3004 6332Z" fill="black"/>
<path d="M1662 6332H831V6728V7124L831 7520V7916V8312V8708V9104L831 9500H1662C1662 9104 1459.16 9023.71 1456.94 8708C1454.66 8383.47 1662 8265.94 1662 7892.97C1662 7520 1459.22 7430.9 1456.94 7124C1454.59 6808.29 1662 6728 1662 6332Z" fill="#333333"/>
<path d="M3004 9496H3835V9100.5V8705V8309.5V7914V7518.5V7123V6727.5V6332H3004C3004 6727.5 3206.84 6807.69 3209.06 7123C3211.34 7447.12 3004 7564.51 3004 7937C3004 8309.5 3206.78 8398.48 3209.06 8705C3211.41 9020.31 3004 9100.5 3004 9496Z" fill="black"/>
<path d="M1662 9496H831V9892V10288L831 10684V11080V11476V11872V12268L831 12664H1662C1662 12268 1459.16 12187.7 1456.94 11872C1454.66 11547.5 1662 11429.9 1662 11057C1662 10684 1459.22 10594.9 1456.94 10288C1454.59 9972.29 1662 9892 1662 9496Z" fill="#333333"/>
<path d="M0 12660H831V12264V11868L831 11472V11076V10680V10284V9888L831 9492H0C0 9888 202.841 9968.29 205.06 10284C207.342 10608.5 4.47246e-06 10726.1 0 11099C-4.47246e-06 11472 202.779 11561.1 205.06 11868C207.407 12183.7 5.69112e-05 12264 0 12660Z" fill="#333333"/>
<path d="M0 9496H831V9100V8704L831 8308V7912V7516V7120V6724L831 6328H0C0 6724 202.841 6804.29 205.06 7120C207.342 7444.53 4.47246e-06 7562.06 0 7935.03C-4.47246e-06 8308 202.779 8397.1 205.06 8704C207.407 9019.71 5.69112e-05 9100 0 9496Z" fill="#333333"/>
<path d="M0 6332H831V5936V5540L831 5144V4748V4352V3956V3560L831 3164H0C0 3560 202.841 3640.29 205.06 3956C207.342 4280.53 4.47246e-06 4398.06 0 4771.03C-4.47246e-06 5144 202.779 5233.1 205.06 5540C207.407 5855.71 5.69112e-05 5936 0 6332Z" fill="#333333"/>
<path d="M0 3168H831V2772V2376L831 1980V1584V1188V792V396L831 0H0C0 396 202.841 476.29 205.06 792C207.342 1116.53 4.47246e-06 1234.06 0 1607.03C-4.47246e-06 1980 202.779 2069.1 205.06 2376C207.407 2691.71 5.69112e-05 2772 0 3168Z" fill="#333333"/>
<path d="M3004 12660H3835V12264.5V11869V11473.5V11078V10682.5V10287V9891.5V9496H3004C3004 9891.5 3206.84 9971.69 3209.06 10287C3211.34 10611.1 3004 10728.5 3004 11101C3004 11473.5 3206.78 11562.5 3209.06 11869C3211.41 12184.3 3004 12264.5 3004 12660Z" fill="black"/>
<path d="M4666 3168H3835V2772.5V2377V1981.5V1586V1190.5V795V399.5V4H4666C4666 399.5 4463.16 479.688 4460.94 795C4458.66 1119.12 4666 1236.51 4666 1609C4666 1981.5 4463.22 2070.48 4460.94 2377C4458.59 2692.31 4666 2772.5 4666 3168Z" fill="black"/>
<path d="M4666 6332H3835V5936.5V5541V5145.5V4750V4354.5V3959V3563.5V3168H4666C4666 3563.5 4463.16 3643.69 4460.94 3959C4458.66 4283.12 4666 4400.51 4666 4773C4666 5145.5 4463.22 5234.48 4460.94 5541C4458.59 5856.31 4666 5936.5 4666 6332Z" fill="black"/>
<path d="M4666 9496H3835V9100.5V8705V8309.5V7914V7518.5V7123V6727.5V6332H4666C4666 6727.5 4463.16 6807.69 4460.94 7123C4458.66 7447.12 4666 7564.51 4666 7937C4666 8309.5 4463.22 8398.48 4460.94 8705C4458.59 9020.31 4666 9100.5 4666 9496Z" fill="black"/>
<path d="M4666 12660H3835V12264.5V11869V11473.5V11078V10682.5V10287V9891.5V9496H4666C4666 9891.5 4463.16 9971.69 4460.94 10287C4458.66 10611.1 4666 10728.5 4666 11101C4666 11473.5 4463.22 11562.5 4460.94 11869C4458.59 12184.3 4666 12264.5 4666 12660Z" fill="black"/>
<path d="M7670 4L6839 4V400V796V1192V1588V1984V2380V2776V3172H7670C7670 2776 7467.16 2695.71 7464.94 2380C7462.66 2055.47 7670 1937.94 7670 1564.97C7670 1192 7467.22 1102.9 7464.94 796C7462.59 480.29 7670 400 7670 4Z" fill="#333333"/>
<path d="M9012 3168H9843V2772.5V2377V1981.5V1586V1190.5V795V399.5V4H9012C9012 399.5 9214.84 479.688 9217.06 795C9219.34 1119.12 9012 1236.51 9012 1609C9012 1981.5 9214.78 2070.48 9217.06 2377C9219.41 2692.31 9012 2772.5 9012 3168Z" fill="black"/>
<path d="M7670 3168H6839V3564V3960V4356V4752V5148V5544V5940V6336H7670C7670 5940 7467.16 5859.71 7464.94 5544C7462.66 5219.47 7670 5101.94 7670 4728.97C7670 4356 7467.22 4266.9 7464.94 3960C7462.59 3644.29 7670 3564 7670 3168Z" fill="#333333"/>
<path d="M9012 6332H9843V5936.5V5541V5145.5V4750V4354.5V3959V3563.5V3168H9012C9012 3563.5 9214.84 3643.69 9217.06 3959C9219.34 4283.12 9012 4400.51 9012 4773C9012 5145.5 9214.78 5234.48 9217.06 5541C9219.41 5856.31 9012 5936.5 9012 6332Z" fill="black"/>
<path d="M7670 6332H6839V6728V7124V7520V7916V8312V8708V9104V9500H7670C7670 9104 7467.16 9023.71 7464.94 8708C7462.66 8383.47 7670 8265.94 7670 7892.97C7670 7520 7467.22 7430.9 7464.94 7124C7462.59 6808.29 7670 6728 7670 6332Z" fill="#333333"/>
<path d="M9012 9496H9843V9100.5V8705V8309.5V7914V7518.5V7123V6727.5V6332H9012C9012 6727.5 9214.84 6807.69 9217.06 7123C9219.34 7447.12 9012 7564.51 9012 7937C9012 8309.5 9214.78 8398.48 9217.06 8705C9219.41 9020.31 9012 9100.5 9012 9496Z" fill="black"/>
<path d="M7670 9496H6839V9892V10288V10684V11080V11476V11872V12268V12664H7670C7670 12268 7467.16 12187.7 7464.94 11872C7462.66 11547.5 7670 11429.9 7670 11057C7670 10684 7467.22 10594.9 7464.94 10288C7462.59 9972.29 7670 9892 7670 9496Z" fill="#333333"/>
<path d="M6008 12660H6839V12264V11868V11472V11076V10680V10284V9888V9492H6008C6008 9888 6210.84 9968.29 6213.06 10284C6215.34 10608.5 6008 10726.1 6008 11099C6008 11472 6210.78 11561.1 6213.06 11868C6215.41 12183.7 6008 12264 6008 12660Z" fill="#333333"/>
<path d="M6008 9496H6839V9100V8704V8308V7912V7516V7120V6724V6328H6008C6008 6724 6210.84 6804.29 6213.06 7120C6215.34 7444.53 6008 7562.06 6008 7935.03C6008 8308 6210.78 8397.1 6213.06 8704C6215.41 9019.71 6008 9100 6008 9496Z" fill="#333333"/>
<path d="M6008 6332H6839V5936V5540V5144V4748V4352V3956V3560V3164H6008C6008 3560 6210.84 3640.29 6213.06 3956C6215.34 4280.53 6008 4398.06 6008 4771.03C6008 5144 6210.78 5233.1 6213.06 5540C6215.41 5855.71 6008 5936 6008 6332Z" fill="#333333"/>
<path d="M6008 3168H6839V2772V2376V1980V1584V1188V792V396V0H6008C6008 396 6210.84 476.29 6213.06 792C6215.34 1116.53 6008 1234.06 6008 1607.03C6008 1980 6210.78 2069.1 6213.06 2376C6215.41 2691.71 6008 2772 6008 3168Z" fill="#333333"/>
<path d="M9012 12660H9843V12264.5V11869V11473.5V11078V10682.5V10287V9891.5V9496H9012C9012 9891.5 9214.84 9971.69 9217.06 10287C9219.34 10611.1 9012 10728.5 9012 11101C9012 11473.5 9214.78 11562.5 9217.06 11869C9219.41 12184.3 9012 12264.5 9012 12660Z" fill="black"/>
<path d="M10674 3168H9843V2772.5V2377V1981.5V1586V1190.5V795V399.5V4H10674C10674 399.5 10471.2 479.688 10468.9 795C10466.7 1119.12 10674 1236.51 10674 1609C10674 1981.5 10471.2 2070.48 10468.9 2377C10466.6 2692.31 10674 2772.5 10674 3168Z" fill="black"/>
<path d="M10674 6332H9843V5936.5V5541V5145.5V4750V4354.5V3959V3563.5V3168H10674C10674 3563.5 10471.2 3643.69 10468.9 3959C10466.7 4283.12 10674 4400.51 10674 4773C10674 5145.5 10471.2 5234.48 10468.9 5541C10466.6 5856.31 10674 5936.5 10674 6332Z" fill="black"/>
<path d="M10674 9496H9843V9100.5V8705V8309.5V7914V7518.5V7123V6727.5V6332H10674C10674 6727.5 10471.2 6807.69 10468.9 7123C10466.7 7447.12 10674 7564.51 10674 7937C10674 8309.5 10471.2 8398.48 10468.9 8705C10466.6 9020.31 10674 9100.5 10674 9496Z" fill="black"/>
<path d="M10674 12660H9843V12264.5V11869V11473.5V11078V10682.5V10287V9891.5V9496H10674C10674 9891.5 10471.2 9971.69 10468.9 10287C10466.7 10611.1 10674 10728.5 10674 11101C10674 11473.5 10471.2 11562.5 10468.9 11869C10466.6 12184.3 10674 12264.5 10674 12660Z" fill="black"/>
<path d="M13678 12668H12847V13064V13460V13856V14252V14648V15044V15440V15836H13678C13678 15440 13475.2 15359.7 13472.9 15044C13470.7 14719.5 13678 14601.9 13678 14229C13678 13856 13475.2 13766.9 13472.9 13460C13470.6 13144.3 13678 13064 13678 12668Z" fill="#333333"/>
<path d="M15020 15832H15851V15436.5V15041V14645.5V14250V13854.5V13459V13063.5V12668H15020C15020 13063.5 15222.8 13143.7 15225.1 13459C15227.3 13783.1 15020 13900.5 15020 14273C15020 14645.5 15222.8 14734.5 15225.1 15041C15227.4 15356.3 15020 15436.5 15020 15832Z" fill="black"/>
<path d="M13678 15832H12847V16228V16624V17020V17416V17812V18208V18604V19000H13678C13678 18604 13475.2 18523.7 13472.9 18208C13470.7 17883.5 13678 17765.9 13678 17393C13678 17020 13475.2 16930.9 13472.9 16624C13470.6 16308.3 13678 16228 13678 15832Z" fill="#333333"/>
<path d="M15020 18996H15851V18600.5V18205V17809.5V17414V17018.5V16623V16227.5V15832H15020C15020 16227.5 15222.8 16307.7 15225.1 16623C15227.3 16947.1 15020 17064.5 15020 17437C15020 17809.5 15222.8 17898.5 15225.1 18205C15227.4 18520.3 15020 18600.5 15020 18996Z" fill="black"/>
<path d="M13678 18996H12847V19392V19788V20184V20580V20976V21372V21768V22164H13678C13678 21768 13475.2 21687.7 13472.9 21372C13470.7 21047.5 13678 20929.9 13678 20557C13678 20184 13475.2 20094.9 13472.9 19788C13470.6 19472.3 13678 19392 13678 18996Z" fill="#333333"/>
<path d="M15020 22160H15851V21764.5V21369V20973.5V20578V20182.5V19787V19391.5V18996H15020C15020 19391.5 15222.8 19471.7 15225.1 19787C15227.3 20111.1 15020 20228.5 15020 20601C15020 20973.5 15222.8 21062.5 15225.1 21369C15227.4 21684.3 15020 21764.5 15020 22160Z" fill="black"/>
<path d="M13678 22160H12847V22556V22952V23348V23744V24140V24536V24932V25328H13678C13678 24932 13475.2 24851.7 13472.9 24536C13470.7 24211.5 13678 24093.9 13678 23721C13678 23348 13475.2 23258.9 13472.9 22952C13470.6 22636.3 13678 22556 13678 22160Z" fill="#333333"/>
<path d="M12016 25324H12847V24928V24532V24136V23740V23344V22948V22552V22156H12016C12016 22552 12218.8 22632.3 12221.1 22948C12223.3 23272.5 12016 23390.1 12016 23763C12016 24136 12218.8 24225.1 12221.1 24532C12223.4 24847.7 12016 24928 12016 25324Z" fill="#333333"/>
<path d="M12016 22160H12847V21764V21368V20972V20576V20180V19784V19388V18992H12016C12016 19388 12218.8 19468.3 12221.1 19784C12223.3 20108.5 12016 20226.1 12016 20599C12016 20972 12218.8 21061.1 12221.1 21368C12223.4 21683.7 12016 21764 12016 22160Z" fill="#333333"/>
<path d="M12016 18996H12847V18600V18204V17808V17412V17016V16620V16224V15828H12016C12016 16224 12218.8 16304.3 12221.1 16620C12223.3 16944.5 12016 17062.1 12016 17435C12016 17808 12218.8 17897.1 12221.1 18204C12223.4 18519.7 12016 18600 12016 18996Z" fill="#333333"/>
<path d="M12016 15832H12847V15436V15040V14644V14248V13852V13456V13060V12664H12016C12016 13060 12218.8 13140.3 12221.1 13456C12223.3 13780.5 12016 13898.1 12016 14271C12016 14644 12218.8 14733.1 12221.1 15040C12223.4 15355.7 12016 15436 12016 15832Z" fill="#333333"/>
<path d="M15020 25324H15851V24928.5V24533V24137.5V23742V23346.5V22951V22555.5V22160H15020C15020 22555.5 15222.8 22635.7 15225.1 22951C15227.3 23275.1 15020 23392.5 15020 23765C15020 24137.5 15222.8 24226.5 15225.1 24533C15227.4 24848.3 15020 24928.5 15020 25324Z" fill="black"/>
<path d="M16682 15832H15851V15436.5V15041V14645.5V14250V13854.5V13459V13063.5V12668H16682C16682 13063.5 16479.2 13143.7 16476.9 13459C16474.7 13783.1 16682 13900.5 16682 14273C16682 14645.5 16479.2 14734.5 16476.9 15041C16474.6 15356.3 16682 15436.5 16682 15832Z" fill="black"/>
<path d="M16682 18996H15851V18600.5V18205V17809.5V17414V17018.5V16623V16227.5V15832H16682C16682 16227.5 16479.2 16307.7 16476.9 16623C16474.7 16947.1 16682 17064.5 16682 17437C16682 17809.5 16479.2 17898.5 16476.9 18205C16474.6 18520.3 16682 18600.5 16682 18996Z" fill="black"/>
<path d="M16682 22160H15851V21764.5V21369V20973.5V20578V20182.5V19787V19391.5V18996H16682C16682 19391.5 16479.2 19471.7 16476.9 19787C16474.7 20111.1 16682 20228.5 16682 20601C16682 20973.5 16479.2 21062.5 16476.9 21369C16474.6 21684.3 16682 21764.5 16682 22160Z" fill="black"/>
<path d="M16682 25324H15851V24928.5V24533V24137.5V23742V23346.5V22951V22555.5V22160H16682C16682 22555.5 16479.2 22635.7 16476.9 22951C16474.7 23275.1 16682 23392.5 16682 23765C16682 24137.5 16479.2 24226.5 16476.9 24533C16474.6 24848.3 16682 24928.5 16682 25324Z" fill="black"/>
<path d="M19686 12668H18855V13064V13460V13856V14252V14648V15044V15440V15836H19686C19686 15440 19483.2 15359.7 19480.9 15044C19478.7 14719.5 19686 14601.9 19686 14229C19686 13856 19483.2 13766.9 19480.9 13460C19478.6 13144.3 19686 13064 19686 12668Z" fill="#333333"/>
<path d="M21028 15832H21859V15436.5V15041V14645.5V14250V13854.5V13459V13063.5V12668H21028C21028 13063.5 21230.8 13143.7 21233.1 13459C21235.3 13783.1 21028 13900.5 21028 14273C21028 14645.5 21230.8 14734.5 21233.1 15041C21235.4 15356.3 21028 15436.5 21028 15832Z" fill="black"/>
<path d="M19686 15832H18855V16228V16624V17020V17416V17812V18208V18604V19000H19686C19686 18604 19483.2 18523.7 19480.9 18208C19478.7 17883.5 19686 17765.9 19686 17393C19686 17020 19483.2 16930.9 19480.9 16624C19478.6 16308.3 19686 16228 19686 15832Z" fill="#333333"/>
<path d="M21028 18996H21859V18600.5V18205V17809.5V17414V17018.5V16623V16227.5V15832H21028C21028 16227.5 21230.8 16307.7 21233.1 16623C21235.3 16947.1 21028 17064.5 21028 17437C21028 17809.5 21230.8 17898.5 21233.1 18205C21235.4 18520.3 21028 18600.5 21028 18996Z" fill="black"/>
<path d="M19686 18996H18855V19392V19788V20184V20580V20976V21372V21768V22164H19686C19686 21768 19483.2 21687.7 19480.9 21372C19478.7 21047.5 19686 20929.9 19686 20557C19686 20184 19483.2 20094.9 19480.9 19788C19478.6 19472.3 19686 19392 19686 18996Z" fill="#333333"/>
<path d="M21028 22160H21859V21764.5V21369V20973.5V20578V20182.5V19787V19391.5V18996H21028C21028 19391.5 21230.8 19471.7 21233.1 19787C21235.3 20111.1 21028 20228.5 21028 20601C21028 20973.5 21230.8 21062.5 21233.1 21369C21235.4 21684.3 21028 21764.5 21028 22160Z" fill="black"/>
<path d="M19686 22160H18855V22556V22952V23348V23744V24140V24536V24932V25328H19686C19686 24932 19483.2 24851.7 19480.9 24536C19478.7 24211.5 19686 24093.9 19686 23721C19686 23348 19483.2 23258.9 19480.9 22952C19478.6 22636.3 19686 22556 19686 22160Z" fill="#333333"/>
<path d="M18024 25324H18855V24928V24532V24136V23740V23344V22948V22552V22156H18024C18024 22552 18226.8 22632.3 18229.1 22948C18231.3 23272.5 18024 23390.1 18024 23763C18024 24136 18226.8 24225.1 18229.1 24532C18231.4 24847.7 18024 24928 18024 25324Z" fill="#333333"/>
<path d="M18024 22160H18855V21764V21368V20972V20576V20180V19784V19388V18992H18024C18024 19388 18226.8 19468.3 18229.1 19784C18231.3 20108.5 18024 20226.1 18024 20599C18024 20972 18226.8 21061.1 18229.1 21368C18231.4 21683.7 18024 21764 18024 22160Z" fill="#333333"/>
<path d="M18024 18996H18855V18600V18204V17808V17412V17016V16620V16224V15828H18024C18024 16224 18226.8 16304.3 18229.1 16620C18231.3 16944.5 18024 17062.1 18024 17435C18024 17808 18226.8 17897.1 18229.1 18204C18231.4 18519.7 18024 18600 18024 18996Z" fill="#333333"/>
<path d="M18024 15832H18855V15436V15040V14644V14248V13852V13456V13060V12664H18024C18024 13060 18226.8 13140.3 18229.1 13456C18231.3 13780.5 18024 13898.1 18024 14271C18024 14644 18226.8 14733.1 18229.1 15040C18231.4 15355.7 18024 15436 18024 15832Z" fill="#333333"/>
<path d="M21028 25324H21859V24928.5V24533V24137.5V23742V23346.5V22951V22555.5V22160H21028C21028 22555.5 21230.8 22635.7 21233.1 22951C21235.3 23275.1 21028 23392.5 21028 23765C21028 24137.5 21230.8 24226.5 21233.1 24533C21235.4 24848.3 21028 24928.5 21028 25324Z" fill="black"/>
<path d="M22690 15832H21859V15436.5V15041V14645.5V14250V13854.5V13459V13063.5V12668H22690C22690 13063.5 22487.2 13143.7 22484.9 13459C22482.7 13783.1 22690 13900.5 22690 14273C22690 14645.5 22487.2 14734.5 22484.9 15041C22482.6 15356.3 22690 15436.5 22690 15832Z" fill="black"/>
<path d="M22690 18996H21859V18600.5V18205V17809.5V17414V17018.5V16623V16227.5V15832H22690C22690 16227.5 22487.2 16307.7 22484.9 16623C22482.7 16947.1 22690 17064.5 22690 17437C22690 17809.5 22487.2 17898.5 22484.9 18205C22482.6 18520.3 22690 18600.5 22690 18996Z" fill="black"/>
<path d="M22690 22160H21859V21764.5V21369V20973.5V20578V20182.5V19787V19391.5V18996H22690C22690 19391.5 22487.2 19471.7 22484.9 19787C22482.7 20111.1 22690 20228.5 22690 20601C22690 20973.5 22487.2 21062.5 22484.9 21369C22482.6 21684.3 22690 21764.5 22690 22160Z" fill="black"/>
<path d="M22690 25324H21859V24928.5V24533V24137.5V23742V23346.5V22951V22555.5V22160H22690C22690 22555.5 22487.2 22635.7 22484.9 22951C22482.7 23275.1 22690 23392.5 22690 23765C22690 24137.5 22487.2 24226.5 22484.9 24533C22482.6 24848.3 22690 24928.5 22690 25324Z" fill="black"/>
<path d="M1662 12664H831V13060V13456L831 13852V14248V14644V15040V15436L831 15832H1662C1662 15436 1459.16 15355.7 1456.94 15040C1454.66 14715.5 1662 14597.9 1662 14225C1662 13852 1459.22 13762.9 1456.94 13456C1454.59 13140.3 1662 13060 1662 12664Z" fill="#333333"/>
<path d="M3004 15828H3835V15432.5V15037V14641.5V14246V13850.5V13455V13059.5V12664H3004C3004 13059.5 3206.84 13139.7 3209.06 13455C3211.34 13779.1 3004 13896.5 3004 14269C3004 14641.5 3206.78 14730.5 3209.06 15037C3211.41 15352.3 3004 15432.5 3004 15828Z" fill="black"/>
<path d="M1662 15828H831V16224V16620L831 17016V17412V17808V18204V18600L831 18996H1662C1662 18600 1459.16 18519.7 1456.94 18204C1454.66 17879.5 1662 17761.9 1662 17389C1662 17016 1459.22 16926.9 1456.94 16620C1454.59 16304.3 1662 16224 1662 15828Z" fill="#333333"/>
<path d="M3004 18992H3835V18596.5V18201V17805.5V17410V17014.5V16619V16223.5V15828H3004C3004 16223.5 3206.84 16303.7 3209.06 16619C3211.34 16943.1 3004 17060.5 3004 17433C3004 17805.5 3206.78 17894.5 3209.06 18201C3211.41 18516.3 3004 18596.5 3004 18992Z" fill="black"/>
<path d="M1662 18992H831V19388V19784L831 20180V20576V20972V21368V21764L831 22160H1662C1662 21764 1459.16 21683.7 1456.94 21368C1454.66 21043.5 1662 20925.9 1662 20553C1662 20180 1459.22 20090.9 1456.94 19784C1454.59 19468.3 1662 19388 1662 18992Z" fill="#333333"/>
<path d="M3004 22156H3835V21760.5V21365V20969.5V20574V20178.5V19783V19387.5V18992H3004C3004 19387.5 3206.84 19467.7 3209.06 19783C3211.34 20107.1 3004 20224.5 3004 20597C3004 20969.5 3206.78 21058.5 3209.06 21365C3211.41 21680.3 3004 21760.5 3004 22156Z" fill="black"/>
<path d="M1662 22156H831V22552V22948L831 23344V23740V24136V24532V24928L831 25324H1662C1662 24928 1459.16 24847.7 1456.94 24532C1454.66 24207.5 1662 24089.9 1662 23717C1662 23344 1459.22 23254.9 1456.94 22948C1454.59 22632.3 1662 22552 1662 22156Z" fill="#333333"/>
<path d="M0 25320H831V24924V24528L831 24132V23736V23340V22944V22548L831 22152H0C0 22548 202.841 22628.3 205.06 22944C207.342 23268.5 4.47246e-06 23386.1 0 23759C-4.47246e-06 24132 202.779 24221.1 205.06 24528C207.407 24843.7 5.69112e-05 24924 0 25320Z" fill="#333333"/>
<path d="M0 22156H831V21760V21364L831 20968V20572V20176V19780V19384L831 18988H0C0 19384 202.841 19464.3 205.06 19780C207.342 20104.5 4.47246e-06 20222.1 0 20595C-4.47246e-06 20968 202.779 21057.1 205.06 21364C207.407 21679.7 5.69112e-05 21760 0 22156Z" fill="#333333"/>
<path d="M0 18992H831V18596V18200L831 17804V17408V17012V16616V16220L831 15824H0C0 16220 202.841 16300.3 205.06 16616C207.342 16940.5 4.47246e-06 17058.1 0 17431C-4.47246e-06 17804 202.779 17893.1 205.06 18200C207.407 18515.7 5.69112e-05 18596 0 18992Z" fill="#333333"/>
<path d="M0 15828H831V15432V15036L831 14640V14244V13848V13452V13056L831 12660H0C0 13056 202.841 13136.3 205.06 13452C207.342 13776.5 4.47246e-06 13894.1 0 14267C-4.47246e-06 14640 202.779 14729.1 205.06 15036C207.407 15351.7 5.69112e-05 15432 0 15828Z" fill="#333333"/>
<path d="M3004 25320H3835V24924.5V24529V24133.5V23738V23342.5V22947V22551.5V22156H3004C3004 22551.5 3206.84 22631.7 3209.06 22947C3211.34 23271.1 3004 23388.5 3004 23761C3004 24133.5 3206.78 24222.5 3209.06 24529C3211.41 24844.3 3004 24924.5 3004 25320Z" fill="black"/>
<path d="M4666 15828H3835V15432.5V15037V14641.5V14246V13850.5V13455V13059.5V12664H4666C4666 13059.5 4463.16 13139.7 4460.94 13455C4458.66 13779.1 4666 13896.5 4666 14269C4666 14641.5 4463.22 14730.5 4460.94 15037C4458.59 15352.3 4666 15432.5 4666 15828Z" fill="black"/>
<path d="M4666 18992H3835V18596.5V18201V17805.5V17410V17014.5V16619V16223.5V15828H4666C4666 16223.5 4463.16 16303.7 4460.94 16619C4458.66 16943.1 4666 17060.5 4666 17433C4666 17805.5 4463.22 17894.5 4460.94 18201C4458.59 18516.3 4666 18596.5 4666 18992Z" fill="black"/>
<path d="M4666 22156H3835V21760.5V21365V20969.5V20574V20178.5V19783V19387.5V18992H4666C4666 19387.5 4463.16 19467.7 4460.94 19783C4458.66 20107.1 4666 20224.5 4666 20597C4666 20969.5 4463.22 21058.5 4460.94 21365C4458.59 21680.3 4666 21760.5 4666 22156Z" fill="black"/>
<path d="M4666 25320H3835V24924.5V24529V24133.5V23738V23342.5V22947V22551.5V22156H4666C4666 22551.5 4463.16 22631.7 4460.94 22947C4458.66 23271.1 4666 23388.5 4666 23761C4666 24133.5 4463.22 24222.5 4460.94 24529C4458.59 24844.3 4666 24924.5 4666 25320Z" fill="black"/>
<path d="M7670 12664H6839V13060V13456V13852V14248V14644V15040V15436V15832H7670C7670 15436 7467.16 15355.7 7464.94 15040C7462.66 14715.5 7670 14597.9 7670 14225C7670 13852 7467.22 13762.9 7464.94 13456C7462.59 13140.3 7670 13060 7670 12664Z" fill="#333333"/>
<path d="M9012 15828H9843V15432.5V15037V14641.5V14246V13850.5V13455V13059.5V12664H9012C9012 13059.5 9214.84 13139.7 9217.06 13455C9219.34 13779.1 9012 13896.5 9012 14269C9012 14641.5 9214.78 14730.5 9217.06 15037C9219.41 15352.3 9012 15432.5 9012 15828Z" fill="black"/>
<path d="M7670 15828H6839V16224V16620V17016V17412V17808V18204V18600V18996H7670C7670 18600 7467.16 18519.7 7464.94 18204C7462.66 17879.5 7670 17761.9 7670 17389C7670 17016 7467.22 16926.9 7464.94 16620C7462.59 16304.3 7670 16224 7670 15828Z" fill="#333333"/>
<path d="M9012 18992H9843V18596.5V18201V17805.5V17410V17014.5V16619V16223.5V15828H9012C9012 16223.5 9214.84 16303.7 9217.06 16619C9219.34 16943.1 9012 17060.5 9012 17433C9012 17805.5 9214.78 17894.5 9217.06 18201C9219.41 18516.3 9012 18596.5 9012 18992Z" fill="black"/>
<path d="M7670 18992H6839V19388V19784V20180V20576V20972V21368V21764V22160H7670C7670 21764 7467.16 21683.7 7464.94 21368C7462.66 21043.5 7670 20925.9 7670 20553C7670 20180 7467.22 20090.9 7464.94 19784C7462.59 19468.3 7670 19388 7670 18992Z" fill="#333333"/>
<path d="M9012 22156H9843V21760.5V21365V20969.5V20574V20178.5V19783V19387.5V18992H9012C9012 19387.5 9214.84 19467.7 9217.06 19783C9219.34 20107.1 9012 20224.5 9012 20597C9012 20969.5 9214.78 21058.5 9217.06 21365C9219.41 21680.3 9012 21760.5 9012 22156Z" fill="black"/>
<path d="M7670 22156H6839V22552V22948V23344V23740V24136V24532V24928V25324H7670C7670 24928 7467.16 24847.7 7464.94 24532C7462.66 24207.5 7670 24089.9 7670 23717C7670 23344 7467.22 23254.9 7464.94 22948C7462.59 22632.3 7670 22552 7670 22156Z" fill="#333333"/>
<path d="M6008 25320H6839V24924V24528V24132V23736V23340V22944V22548V22152H6008C6008 22548 6210.84 22628.3 6213.06 22944C6215.34 23268.5 6008 23386.1 6008 23759C6008 24132 6210.78 24221.1 6213.06 24528C6215.41 24843.7 6008 24924 6008 25320Z" fill="#333333"/>
<path d="M6008 22156H6839V21760V21364V20968V20572V20176V19780V19384V18988H6008C6008 19384 6210.84 19464.3 6213.06 19780C6215.34 20104.5 6008 20222.1 6008 20595C6008 20968 6210.78 21057.1 6213.06 21364C6215.41 21679.7 6008 21760 6008 22156Z" fill="#333333"/>
<path d="M6008 18992H6839V18596V18200V17804V17408V17012V16616V16220V15824H6008C6008 16220 6210.84 16300.3 6213.06 16616C6215.34 16940.5 6008 17058.1 6008 17431C6008 17804 6210.78 17893.1 6213.06 18200C6215.41 18515.7 6008 18596 6008 18992Z" fill="#333333"/>
<path d="M6008 15828H6839V15432V15036V14640V14244V13848V13452V13056V12660H6008C6008 13056 6210.84 13136.3 6213.06 13452C6215.34 13776.5 6008 13894.1 6008 14267C6008 14640 6210.78 14729.1 6213.06 15036C6215.41 15351.7 6008 15432 6008 15828Z" fill="#333333"/>
<path d="M9012 25320H9843V24924.5V24529V24133.5V23738V23342.5V22947V22551.5V22156H9012C9012 22551.5 9214.84 22631.7 9217.06 22947C9219.34 23271.1 9012 23388.5 9012 23761C9012 24133.5 9214.78 24222.5 9217.06 24529C9219.41 24844.3 9012 24924.5 9012 25320Z" fill="black"/>
<path d="M10674 15828H9843V15432.5V15037V14641.5V14246V13850.5V13455V13059.5V12664H10674C10674 13059.5 10471.2 13139.7 10468.9 13455C10466.7 13779.1 10674 13896.5 10674 14269C10674 14641.5 10471.2 14730.5 10468.9 15037C10466.6 15352.3 10674 15432.5 10674 15828Z" fill="black"/>
<path d="M10674 18992H9843V18596.5V18201V17805.5V17410V17014.5V16619V16223.5V15828H10674C10674 16223.5 10471.2 16303.7 10468.9 16619C10466.7 16943.1 10674 17060.5 10674 17433C10674 17805.5 10471.2 17894.5 10468.9 18201C10466.6 18516.3 10674 18596.5 10674 18992Z" fill="black"/>
<path d="M10674 22156H9843V21760.5V21365V20969.5V20574V20178.5V19783V19387.5V18992H10674C10674 19387.5 10471.2 19467.7 10468.9 19783C10466.7 20107.1 10674 20224.5 10674 20597C10674 20969.5 10471.2 21058.5 10468.9 21365C10466.6 21680.3 10674 21760.5 10674 22156Z" fill="black"/>
<path d="M10674 25320H9843V24924.5V24529V24133.5V23738V23342.5V22947V22551.5V22156H10674C10674 22551.5 10471.2 22631.7 10468.9 22947C10466.7 23271.1 10674 23388.5 10674 23761C10674 24133.5 10471.2 24222.5 10468.9 24529C10466.6 24844.3 10674 24924.5 10674 25320Z" fill="black"/>
<path d="M13678 4L12847 4V400V796V1192V1588V1984V2380V2776V3172H13678C13678 2776 13475.2 2695.71 13472.9 2380C13470.7 2055.47 13678 1937.94 13678 1564.97C13678 1192 13475.2 1102.9 13472.9 796C13470.6 480.29 13678 400 13678 4Z" fill="#333333"/>
<path d="M15020 3168H15851V2772.5V2377V1981.5V1586V1190.5V795V399.5V4H15020C15020 399.5 15222.8 479.688 15225.1 795C15227.3 1119.12 15020 1236.51 15020 1609C15020 1981.5 15222.8 2070.48 15225.1 2377C15227.4 2692.31 15020 2772.5 15020 3168Z" fill="black"/>
<path d="M13678 3168H12847V3564V3960V4356V4752V5148V5544V5940V6336H13678C13678 5940 13475.2 5859.71 13472.9 5544C13470.7 5219.47 13678 5101.94 13678 4728.97C13678 4356 13475.2 4266.9 13472.9 3960C13470.6 3644.29 13678 3564 13678 3168Z" fill="#333333"/>
<path d="M15020 6332H15851V5936.5V5541V5145.5V4750V4354.5V3959V3563.5V3168H15020C15020 3563.5 15222.8 3643.69 15225.1 3959C15227.3 4283.12 15020 4400.51 15020 4773C15020 5145.5 15222.8 5234.48 15225.1 5541C15227.4 5856.31 15020 5936.5 15020 6332Z" fill="black"/>
<path d="M13678 6332H12847V6728V7124V7520V7916V8312V8708V9104V9500H13678C13678 9104 13475.2 9023.71 13472.9 8708C13470.7 8383.47 13678 8265.94 13678 7892.97C13678 7520 13475.2 7430.9 13472.9 7124C13470.6 6808.29 13678 6728 13678 6332Z" fill="#333333"/>
<path d="M15020 9496H15851V9100.5V8705V8309.5V7914V7518.5V7123V6727.5V6332H15020C15020 6727.5 15222.8 6807.69 15225.1 7123C15227.3 7447.12 15020 7564.51 15020 7937C15020 8309.5 15222.8 8398.48 15225.1 8705C15227.4 9020.31 15020 9100.5 15020 9496Z" fill="black"/>
<path d="M13678 9496H12847V9892V10288V10684V11080V11476V11872V12268V12664H13678C13678 12268 13475.2 12187.7 13472.9 11872C13470.7 11547.5 13678 11429.9 13678 11057C13678 10684 13475.2 10594.9 13472.9 10288C13470.6 9972.29 13678 9892 13678 9496Z" fill="#333333"/>
<path d="M12016 12660H12847V12264V11868V11472V11076V10680V10284V9888V9492H12016C12016 9888 12218.8 9968.29 12221.1 10284C12223.3 10608.5 12016 10726.1 12016 11099C12016 11472 12218.8 11561.1 12221.1 11868C12223.4 12183.7 12016 12264 12016 12660Z" fill="#333333"/>
<path d="M12016 9496H12847V9100V8704V8308V7912V7516V7120V6724V6328H12016C12016 6724 12218.8 6804.29 12221.1 7120C12223.3 7444.53 12016 7562.06 12016 7935.03C12016 8308 12218.8 8397.1 12221.1 8704C12223.4 9019.71 12016 9100 12016 9496Z" fill="#333333"/>
<path d="M12016 6332H12847V5936V5540V5144V4748V4352V3956V3560V3164H12016C12016 3560 12218.8 3640.29 12221.1 3956C12223.3 4280.53 12016 4398.06 12016 4771.03C12016 5144 12218.8 5233.1 12221.1 5540C12223.4 5855.71 12016 5936 12016 6332Z" fill="#333333"/>
<path d="M12016 3168H12847V2772V2376V1980V1584V1188V792V396V0H12016C12016 396 12218.8 476.29 12221.1 792C12223.3 1116.53 12016 1234.06 12016 1607.03C12016 1980 12218.8 2069.1 12221.1 2376C12223.4 2691.71 12016 2772 12016 3168Z" fill="#333333"/>
<path d="M15020 12660H15851V12264.5V11869V11473.5V11078V10682.5V10287V9891.5V9496H15020C15020 9891.5 15222.8 9971.69 15225.1 10287C15227.3 10611.1 15020 10728.5 15020 11101C15020 11473.5 15222.8 11562.5 15225.1 11869C15227.4 12184.3 15020 12264.5 15020 12660Z" fill="black"/>
<path d="M16682 3168H15851V2772.5V2377V1981.5V1586V1190.5V795V399.5V4H16682C16682 399.5 16479.2 479.688 16476.9 795C16474.7 1119.12 16682 1236.51 16682 1609C16682 1981.5 16479.2 2070.48 16476.9 2377C16474.6 2692.31 16682 2772.5 16682 3168Z" fill="black"/>
<path d="M16682 6332H15851V5936.5V5541V5145.5V4750V4354.5V3959V3563.5V3168H16682C16682 3563.5 16479.2 3643.69 16476.9 3959C16474.7 4283.12 16682 4400.51 16682 4773C16682 5145.5 16479.2 5234.48 16476.9 5541C16474.6 5856.31 16682 5936.5 16682 6332Z" fill="black"/>
<path d="M16682 9496H15851V9100.5V8705V8309.5V7914V7518.5V7123V6727.5V6332H16682C16682 6727.5 16479.2 6807.69 16476.9 7123C16474.7 7447.12 16682 7564.51 16682 7937C16682 8309.5 16479.2 8398.48 16476.9 8705C16474.6 9020.31 16682 9100.5 16682 9496Z" fill="black"/>
<path d="M16682 12660H15851V12264.5V11869V11473.5V11078V10682.5V10287V9891.5V9496H16682C16682 9891.5 16479.2 9971.69 16476.9 10287C16474.7 10611.1 16682 10728.5 16682 11101C16682 11473.5 16479.2 11562.5 16476.9 11869C16474.6 12184.3 16682 12264.5 16682 12660Z" fill="black"/>
<path d="M19686 4L18855 4V400V796V1192V1588V1984V2380V2776V3172H19686C19686 2776 19483.2 2695.71 19480.9 2380C19478.7 2055.47 19686 1937.94 19686 1564.97C19686 1192 19483.2 1102.9 19480.9 796C19478.6 480.29 19686 400 19686 4Z" fill="#333333"/>
<path d="M21028 3168H21859V2772.5V2377V1981.5V1586V1190.5V795V399.5V4H21028C21028 399.5 21230.8 479.688 21233.1 795C21235.3 1119.12 21028 1236.51 21028 1609C21028 1981.5 21230.8 2070.48 21233.1 2377C21235.4 2692.31 21028 2772.5 21028 3168Z" fill="black"/>
<path d="M19686 3168H18855V3564V3960V4356V4752V5148V5544V5940V6336H19686C19686 5940 19483.2 5859.71 19480.9 5544C19478.7 5219.47 19686 5101.94 19686 4728.97C19686 4356 19483.2 4266.9 19480.9 3960C19478.6 3644.29 19686 3564 19686 3168Z" fill="#333333"/>
<path d="M21028 6332H21859V5936.5V5541V5145.5V4750V4354.5V3959V3563.5V3168H21028C21028 3563.5 21230.8 3643.69 21233.1 3959C21235.3 4283.12 21028 4400.51 21028 4773C21028 5145.5 21230.8 5234.48 21233.1 5541C21235.4 5856.31 21028 5936.5 21028 6332Z" fill="black"/>
<path d="M19686 6332H18855V6728V7124V7520V7916V8312V8708V9104V9500H19686C19686 9104 19483.2 9023.71 19480.9 8708C19478.7 8383.47 19686 8265.94 19686 7892.97C19686 7520 19483.2 7430.9 19480.9 7124C19478.6 6808.29 19686 6728 19686 6332Z" fill="#333333"/>
<path d="M21028 9496H21859V9100.5V8705V8309.5V7914V7518.5V7123V6727.5V6332H21028C21028 6727.5 21230.8 6807.69 21233.1 7123C21235.3 7447.12 21028 7564.51 21028 7937C21028 8309.5 21230.8 8398.48 21233.1 8705C21235.4 9020.31 21028 9100.5 21028 9496Z" fill="black"/>
<path d="M19686 9496H18855V9892V10288V10684V11080V11476V11872V12268V12664H19686C19686 12268 19483.2 12187.7 19480.9 11872C19478.7 11547.5 19686 11429.9 19686 11057C19686 10684 19483.2 10594.9 19480.9 10288C19478.6 9972.29 19686 9892 19686 9496Z" fill="#333333"/>
<path d="M18024 12660H18855V12264V11868V11472V11076V10680V10284V9888V9492H18024C18024 9888 18226.8 9968.29 18229.1 10284C18231.3 10608.5 18024 10726.1 18024 11099C18024 11472 18226.8 11561.1 18229.1 11868C18231.4 12183.7 18024 12264 18024 12660Z" fill="#333333"/>
<path d="M18024 9496H18855V9100V8704V8308V7912V7516V7120V6724V6328H18024C18024 6724 18226.8 6804.29 18229.1 7120C18231.3 7444.53 18024 7562.06 18024 7935.03C18024 8308 18226.8 8397.1 18229.1 8704C18231.4 9019.71 18024 9100 18024 9496Z" fill="#333333"/>
<path d="M18024 6332H18855V5936V5540V5144V4748V4352V3956V3560V3164H18024C18024 3560 18226.8 3640.29 18229.1 3956C18231.3 4280.53 18024 4398.06 18024 4771.03C18024 5144 18226.8 5233.1 18229.1 5540C18231.4 5855.71 18024 5936 18024 6332Z" fill="#333333"/>
<path d="M18024 3168H18855V2772V2376V1980V1584V1188V792V396V0H18024C18024 396 18226.8 476.29 18229.1 792C18231.3 1116.53 18024 1234.06 18024 1607.03C18024 1980 18226.8 2069.1 18229.1 2376C18231.4 2691.71 18024 2772 18024 3168Z" fill="#333333"/>
<path d="M21028 12660H21859V12264.5V11869V11473.5V11078V10682.5V10287V9891.5V9496H21028C21028 9891.5 21230.8 9971.69 21233.1 10287C21235.3 10611.1 21028 10728.5 21028 11101C21028 11473.5 21230.8 11562.5 21233.1 11869C21235.4 12184.3 21028 12264.5 21028 12660Z" fill="black"/>
<path d="M22690 3168H21859V2772.5V2377V1981.5V1586V1190.5V795V399.5V4H22690C22690 399.5 22487.2 479.688 22484.9 795C22482.7 1119.12 22690 1236.51 22690 1609C22690 1981.5 22487.2 2070.48 22484.9 2377C22482.6 2692.31 22690 2772.5 22690 3168Z" fill="black"/>
<path d="M22690 6332H21859V5936.5V5541V5145.5V4750V4354.5V3959V3563.5V3168H22690C22690 3563.5 22487.2 3643.69 22484.9 3959C22482.7 4283.12 22690 4400.51 22690 4773C22690 5145.5 22487.2 5234.48 22484.9 5541C22482.6 5856.31 22690 5936.5 22690 6332Z" fill="black"/>
<path d="M22690 9496H21859V9100.5V8705V8309.5V7914V7518.5V7123V6727.5V6332H22690C22690 6727.5 22487.2 6807.69 22484.9 7123C22482.7 7447.12 22690 7564.51 22690 7937C22690 8309.5 22487.2 8398.48 22484.9 8705C22482.6 9020.31 22690 9100.5 22690 9496Z" fill="black"/>
<path d="M22690 12660H21859V12264.5V11869V11473.5V11078V10682.5V10287V9891.5V9496H22690C22690 9891.5 22487.2 9971.69 22484.9 10287C22482.7 10611.1 22690 10728.5 22690 11101C22690 11473.5 22487.2 11562.5 22484.9 11869C22482.6 12184.3 22690 12264.5 22690 12660Z" fill="black"/>
</svg>
